# This file uses centimeters as units for non-parametric coordinates.

v 3.529948 168.137482 17.613165
v 3.364129 167.831787 17.666983
v 3.308263 167.871292 17.676275
v 3.261233 167.921143 17.685156
v 3.224815 167.979492 17.693029
v 3.200417 168.044037 17.699469
v 3.188973 168.112152 17.704229
v 3.190904 168.181183 17.707006
v 3.206112 168.248550 17.707541
v 3.233994 168.311722 17.705709
v 3.273465 168.368011 17.701529
v 3.323012 168.415207 17.695242
v 3.380748 168.451660 17.687231
v 3.444459 168.475983 17.677908
v 3.511712 168.487244 17.667776
v 3.579911 168.485153 17.657202
v 3.646445 168.469788 17.646658
v 3.708928 168.441803 17.637671
v 3.764785 168.402283 17.629431
v 3.811939 168.352783 17.622671
v 3.848536 168.295151 17.617285
v 3.873162 168.231445 17.613394
v 3.884874 168.164352 17.610998
v 3.883191 168.096191 17.610037
v 3.868186 168.029465 17.610434
v 3.840409 167.966675 17.612112
v 3.800911 167.910324 17.615042
v 3.751231 167.862625 17.619268
v 3.693294 167.825516 17.624807
v 3.629349 167.800369 17.631613
v 3.561852 167.788116 17.639486
v 3.493405 167.789398 17.648184
v 3.426643 167.804138 17.657476
v 3.212307 167.544495 17.745047
v 3.103369 167.621307 17.758932
v 3.011315 167.717941 17.770163
v 2.939677 167.830872 17.778296
v 2.891220 167.955658 17.783056
v 2.867804 168.087631 17.784262
v 2.870331 168.221603 17.781881
v 2.898674 168.352371 17.775839
v 2.951632 168.474503 17.765860
v 3.027103 168.583313 17.751974
v 3.122200 168.674591 17.734777
v 3.233299 168.744827 17.715109
v 3.356184 168.791656 17.693975
v 3.486190 168.813278 17.672506
v 3.618390 168.809052 17.651785
v 3.747741 168.779343 17.632849
v 3.869316 168.725250 17.616598
v 3.978447 168.648911 17.603674
v 4.070915 168.553284 17.594488
v 4.143136 168.441910 17.589209
v 4.192280 168.318909 17.587774
v 4.216395 168.188919 17.589956
v 4.214496 168.056564 17.595373
v 4.186610 167.927032 17.603582
v 4.133775 167.805161 17.614141
v 4.058037 167.695557 17.626715
v 3.962411 167.602890 17.641302
v 3.850653 167.530853 17.657736
v 3.727060 167.482178 17.675451
v 3.596391 167.458893 17.693747
v 3.463655 167.461670 17.711874
v 3.333963 167.490570 17.729162
v 3.042070 167.277298 17.598440
v 2.884728 167.388123 17.618368
v 2.751783 167.527786 17.634497
v 2.648331 167.690872 17.646231
v 2.578354 167.871140 17.653112
v 2.544540 168.061737 17.654882
v 2.548193 168.255173 17.651449
v 2.589164 168.444031 17.642920
v 2.665838 168.620987 17.629309
v 2.775105 168.778687 17.610128
v 2.912616 168.910736 17.585623
v 3.073085 169.012115 17.556967
v 3.250453 169.079330 17.525824
v 3.438022 169.110153 17.494009
v 3.628720 169.103699 17.463385
v 3.815337 169.060471 17.435583
v 3.990795 168.982285 17.412008
v 4.148365 168.872360 17.393637
v 4.281966 168.734634 17.380987
v 4.386401 168.574219 17.374151
v 4.457522 168.397018 17.372839
v 4.492461 168.209412 17.376471
v 4.489737 168.018250 17.384283
v 4.449351 167.830750 17.395544
v 4.372868 167.654053 17.409826
v 4.263386 167.495560 17.427450
v 4.125269 167.361633 17.448431
v 3.963874 167.257599 17.472174
v 3.785397 167.187363 17.497747
v 3.596704 167.153641 17.524160
v 3.405026 167.157715 17.550421
v 3.217758 167.199478 17.575491
v 2.881618 167.039246 17.399588
v 2.681349 167.180328 17.424948
v 2.512128 167.358047 17.445501
v 2.380458 167.565674 17.460440
v 2.291386 167.795181 17.469198
v 2.248350 168.037643 17.471441
v 2.253000 168.283813 17.467077
v 2.305153 168.524307 17.456274
v 2.402795 168.749664 17.439306
v 2.542069 168.950912 17.415945
v 2.717296 169.119492 17.385672
v 2.921642 169.248657 17.349554
v 3.147383 169.334137 17.309805
v 3.386051 169.373062 17.268942
v 3.628666 169.364639 17.229528
v 3.866099 169.309402 17.193853
v 4.089341 169.209930 17.163778
v 4.289890 169.070099 17.140570
v 4.460005 168.895111 17.124807
v 4.593034 168.691177 17.116537
v 4.683637 168.465759 17.115149
v 4.728139 168.226959 17.119696
v 4.724596 167.983322 17.129080
v 4.673013 167.744186 17.142370
v 4.575489 167.518921 17.159735
v 4.436116 167.317062 17.181982
v 4.260312 167.146667 17.208685
v 4.054891 167.014206 17.238882
v 3.827729 166.924850 17.271414
v 3.587550 166.881851 17.305059
v 3.343587 166.887054 17.338461
v 3.105218 166.940231 17.370398
v 2.737888 166.842484 17.148733
v 2.502390 167.008377 17.178564
v 2.303403 167.217422 17.202719
v 2.148570 167.461624 17.220297
v 2.043835 167.731445 17.230581
v 1.993231 168.016617 17.233221
v 1.998686 168.306000 17.228109
v 2.060020 168.588852 17.215399
v 2.174847 168.854004 17.195608
v 2.338734 169.091034 17.169012
v 2.545065 169.290039 17.134909
v 2.785637 169.442535 17.093618
v 3.051235 169.543335 17.047522
v 3.331923 169.589203 16.999731
v 3.617211 169.579193 16.953421
v 3.896387 169.514328 16.911428
v 4.158883 169.397308 16.876028
v 4.394719 169.232956 16.848776
v 4.594777 169.027100 16.830267
v 4.751185 168.787262 16.820425
v 4.857696 168.522064 16.818396
v 4.909886 168.240814 16.822897
v 4.905456 167.953674 16.832541
v 4.844518 167.671707 16.846762
v 4.729759 167.406647 16.866751
v 4.565842 167.169250 16.892843
v 4.359119 166.968842 16.924246
v 4.117561 166.813110 16.959768
v 3.850434 166.707977 16.998022
v 3.568002 166.657471 17.037558
v 3.281131 166.663605 17.076864
v 3.000825 166.726059 17.114401
v 2.616411 166.694672 16.855536
v 2.354740 166.879028 16.888662
v 2.133624 167.111328 16.915503
v 1.961580 167.382614 16.935034
v 1.845209 167.682434 16.946478
v 1.788975 167.999298 16.949408
v 1.795043 168.321014 16.943701
v 1.863186 168.635147 16.929617
v 1.990777 168.929855 16.907644
v 2.172916 169.193481 16.878485
v 2.402460 169.415421 16.842245
v 2.670160 169.586014 16.798376
v 2.965635 169.698822 16.748724
v 3.277755 169.750290 16.696676
v 3.594891 169.739395 16.645819
v 3.905161 169.667450 16.599478
v 4.196883 169.537476 16.560217
v 4.458913 169.354736 16.529730
v 4.681137 169.125778 16.508749
v 4.854795 168.858948 16.497000
v 4.972924 168.563599 16.493505
v 5.030593 168.250076 16.496740
v 5.025265 167.929962 16.505468
v 4.957302 167.616089 16.520178
v 4.829723 167.321548 16.542181
v 4.647574 167.057846 16.571173
v 4.417873 166.835175 16.606070
v 4.149462 166.662064 16.645544
v 3.852649 166.545166 16.688055
v 3.538810 166.489075 16.732000
v 3.220054 166.495926 16.775656
v 2.908592 166.565292 16.817373
v 2.521874 166.601471 16.531210
v 2.244074 166.797180 16.566381
v 2.009345 167.043823 16.594885
v 1.826703 167.331787 16.615606
v 1.703143 167.650055 16.627768
v 1.643451 167.986435 16.630880
v 1.649891 168.328018 16.624838
v 1.722242 168.661575 16.609854
v 1.857692 168.974274 16.586523
v 2.051053 169.254288 16.555746
v 2.294866 169.490463 16.518270
v 2.579496 169.672867 16.474066
v 2.893656 169.793930 16.423773
v 3.225431 169.849564 16.370367
v 3.562396 169.838730 16.317648
v 3.891972 169.762634 16.269156
v 4.201719 169.624756 16.227621
v 4.479853 169.430527 16.194876
v 4.715611 169.186966 16.171652
v 4.899693 168.902924 16.157675
v 5.024687 168.588257 16.151861
v 5.085388 168.254105 16.152792
v 5.079296 167.913162 16.160116
v 5.007002 167.579697 16.175238
v 4.871553 167.266953 16.198568
v 4.678177 166.987045 16.229345
v 4.434344 166.750656 16.266394
v 4.149373 166.566818 16.308294
v 3.834270 166.442795 16.353430
v 3.501108 166.383209 16.400076
v 3.162701 166.390442 16.446432
v 2.832056 166.464111 16.490713
v 2.457899 166.566544 16.188269
v 2.174659 166.766098 16.224127
v 1.935331 167.017456 16.253195
v 1.749097 167.311127 16.274343
v 1.623135 167.635605 16.286718
v 1.562254 167.978638 16.289892
v 1.568830 168.326813 16.283728
v 1.642599 168.666946 16.268469
v 1.780717 168.985779 16.244680
v 1.977864 169.271271 16.213308
v 2.226482 169.512299 16.175467
v 2.516944 169.699203 16.132086
v 2.837809 169.824173 16.083532
v 3.176608 169.882294 16.031637
v 3.520611 169.872330 15.979742
v 3.856916 169.795319 15.931341
v 4.172841 169.654770 15.889212
v 4.456357 169.456390 15.855230
v 4.696486 169.207382 15.830175
v 4.883763 168.916534 15.813772
v 5.010653 168.594131 15.805120
v 5.071969 168.252090 15.803579
v 5.065491 167.904007 15.810049
v 4.991737 167.563934 15.825323
v 4.853630 167.245041 15.849112
v 4.656479 166.959610 15.880499
v 4.407848 166.718582 15.918264
v 4.117306 166.531143 15.960989
v 3.796013 166.404678 16.007010
v 3.456323 166.343994 16.054556
v 3.111290 166.351349 16.101828
v 2.774159 166.426468 16.146963
v 2.426959 166.591064 15.839911
v 2.149161 166.786758 15.875082
v 1.914440 167.033401 15.903570
v 1.731781 167.321365 15.924307
v 1.608232 167.639633 15.936453
v 1.548536 167.975998 15.939566
v 1.554993 168.317490 15.933523
v 1.627320 168.651093 15.918554
v 1.762781 168.963837 15.895224
v 1.956150 169.243805 15.864447
v 2.199993 169.480255 15.827398
v 2.484946 169.663956 15.785421
v 2.799967 169.787598 15.739721
v 3.132803 169.846146 15.691381
v 3.470680 169.837509 15.642675
v 3.800867 169.762741 15.596533
v 4.110846 169.625107 15.555532
v 4.388812 169.430023 15.521475
v 4.624011 169.184769 15.495169
v 4.807206 168.898087 15.476660
v 4.931070 168.580582 15.465689
v 4.990867 168.244385 15.462881
v 4.984435 167.902847 15.468954
v 4.912109 167.569336 15.483923
v 4.776639 167.256592 15.507254
v 4.583275 166.976562 15.538031
v 4.339432 166.740173 15.575094
v 4.054474 166.556396 15.616995
v 3.739359 166.432327 15.662115
v 3.406196 166.372833 15.708746
v 3.067804 166.380035 15.755117
v 2.737145 166.453705 15.799398
v 2.430234 166.674210 15.499502
v 2.168565 166.858612 15.532644
v 1.947455 167.090897 15.559484
v 1.775405 167.362137 15.579000
v 1.659029 167.661942 15.590445
v 1.602808 167.978790 15.593390
v 1.608878 168.300491 15.587683
v 1.677020 168.614731 15.573584
v 1.804614 168.909256 15.551611
v 1.986755 169.173035 15.522619
v 2.216447 169.395706 15.487722
v 2.484870 169.568756 15.448248
v 2.781674 169.685532 15.405691
v 3.095464 169.741501 15.361517
v 3.414126 169.734482 15.317389
v 3.725440 169.664734 15.275152
v 4.017562 169.535248 15.236837
v 4.279296 169.351105 15.204062
v 4.500527 169.119125 15.177740
v 4.672696 168.848114 15.158606
v 4.789105 168.548386 15.147299
v 4.845351 168.231552 15.144384
v 4.839284 167.909882 15.150091
v 4.771147 167.595657 15.164190
v 4.643550 167.301086 15.186148
v 4.461407 167.037384 15.215155
v 4.231712 166.814667 15.250051
v 3.963300 166.641525 15.289511
v 3.666475 166.524719 15.332022
v 3.352660 166.468628 15.375967
v 3.033883 166.475372 15.419638
v 2.722421 166.544830 15.461340
v 2.467609 166.812744 15.180151
v 2.232130 166.978699 15.209982
v 2.033144 167.187714 15.234137
v 1.878296 167.431824 15.251699
v 1.773567 167.701614 15.261999
v 1.722958 167.986755 15.264639
v 1.728422 168.276337 15.259512
v 1.789747 168.559082 15.246817
v 1.904578 168.824219 15.227057
v 2.068491 169.061630 15.200964
v 2.275222 169.262024 15.169546
v 2.516780 169.417709 15.134039
v 2.783904 169.522827 15.095770
v 3.066330 169.573380 15.056234
v 3.353194 169.567200 15.016912
v 3.633491 169.504745 14.979315
v 3.896416 169.388275 14.944952
v 4.131918 169.222427 14.915182
v 4.330921 169.013397 14.891058
v 4.485756 168.769287 14.873510
v 4.590490 168.499435 14.863195
v 4.641106 168.214233 14.860571
v 4.635637 167.924759 14.865698
v 4.574312 167.642044 14.878378
v 4.459493 167.376907 14.898153
v 4.295561 167.139572 14.924246
v 4.088850 166.939102 14.955648
v 3.847288 166.783310 14.991171
v 3.580161 166.678223 15.029440
v 3.297732 166.627716 15.068991
v 3.010858 166.633835 15.108282
v 2.730561 166.696259 15.145819
v 2.537640 167.001373 14.894125
v 2.337377 167.142441 14.919485
v 2.168147 167.320160 14.940023
v 2.036476 167.527771 14.954977
v 1.947404 167.757263 14.963736
v 1.904376 167.999741 14.965979
v 1.909020 168.245956 14.961615
v 1.961177 168.486435 14.950827
v 2.058827 168.711929 14.934011
v 2.198226 168.913788 14.911825
v 2.374017 169.084198 14.885122
v 2.579438 169.216629 14.854910
v 2.806617 169.305984 14.822378
v 3.046780 169.348953 14.788748
v 3.290744 169.343750 14.755331
v 3.529102 169.290634 14.723410
v 3.752718 169.191681 14.694204
v 3.952975 169.050537 14.668859
v 4.122197 168.872757 14.648291
v 4.253873 168.665115 14.633352
v 4.342936 168.435638 14.624594
v 4.385982 168.193237 14.622351
v 4.381321 167.946991 14.626715
v 4.329178 167.706543 14.637503
v 4.231529 167.481094 14.654318
v 4.092128 167.279266 14.676504
v 3.916342 167.108765 14.703207
v 3.710916 166.976318 14.733419
v 3.483746 166.886932 14.765966
v 3.243569 166.843979 14.799582
v 2.999614 166.849213 14.832998
v 2.761242 166.902359 14.864920
v 2.637603 167.232758 14.652426
v 2.480266 167.343597 14.672338
v 2.347319 167.483231 14.688498
v 2.243862 167.646347 14.700232
v 2.173891 167.826599 14.707113
v 2.140080 168.017166 14.708883
v 2.143721 168.210541 14.705450
v 2.184699 168.399521 14.696966
v 2.261428 168.576675 14.683767
v 2.370954 168.735199 14.666327
v 2.509045 168.869186 14.645346
v 2.670449 168.973206 14.621618
v 2.848927 169.043472 14.596045
v 3.037630 169.077194 14.569632
v 3.229304 169.073090 14.543371
v 3.416575 169.031403 14.518301
v 3.592260 168.953583 14.495352
v 3.749596 168.842773 14.475439
v 3.882552 168.703018 14.459280
v 3.985997 168.539948 14.447546
v 4.055978 168.359695 14.440664
v 4.089796 168.169189 14.438894
v 4.086136 167.975693 14.442327
v 4.045167 167.786835 14.450811
v 3.968445 167.609711 14.464025
v 3.858928 167.451065 14.481451
v 3.720812 167.317154 14.502432
v 3.559421 167.213104 14.526175
v 3.380945 167.142822 14.551718
v 3.192240 167.109100 14.578146
v 3.000562 167.113235 14.604391
v 2.813291 167.154953 14.629477
v 2.763683 167.498047 14.464315
v 2.655307 167.574387 14.478048
v 2.563733 167.670578 14.489157
v 2.492478 167.782944 14.497259
v 2.444275 167.907104 14.501989
v 2.420986 168.038391 14.503210
v 2.423498 168.171555 14.500845
v 2.451723 168.301682 14.495001
v 2.504565 168.423706 14.485907
v 2.580000 168.532913 14.473898
v 2.675140 168.625244 14.459448
v 2.786305 168.696884 14.443090
v 2.909241 168.745209 14.425482
v 3.039220 168.768433 14.407293
v 3.171246 168.765625 14.389196
v 3.300237 168.736954 14.371939
v 3.421247 168.683426 14.356131
v 3.529624 168.607056 14.342398
v 3.621197 168.510773 14.331289
v 3.692453 168.398392 14.323202
v 3.740653 168.274292 14.318457
v 3.763944 168.143066 14.317251
v 3.761430 168.009811 14.319601
v 3.733206 167.879669 14.325445
v 3.680360 167.757660 14.334539
v 3.604922 167.648422 14.346563
v 3.509790 167.556198 14.361013
v 3.398621 167.484528 14.377356
v 3.275689 167.436081 14.394964
v 3.145714 167.412872 14.413153
v 3.013685 167.415726 14.431250
v 2.884694 167.444504 14.448507
v 2.904772 167.775482 14.339453
v 2.847398 167.815857 14.346716
v 2.798921 167.866714 14.352606
v 2.761200 167.926285 14.356878
v 2.735685 167.991989 14.359396
v 2.723356 168.061523 14.360037
v 2.724686 168.131958 14.358801
v 2.739626 168.200836 14.355703
v 2.767603 168.265457 14.350882
v 2.807536 168.323318 14.344534
v 2.857898 168.372147 14.336874
v 2.916744 168.410019 14.328207
v 2.981826 168.435638 14.318899
v 3.050630 168.447998 14.309271
v 3.120519 168.446487 14.299704
v 3.188805 168.431335 14.290548
v 3.252866 168.402969 14.282202
v 3.310235 168.362518 14.274923
v 3.358713 168.311539 14.269033
v 3.396432 168.252045 14.264761
v 3.421947 168.186356 14.262243
v 3.434282 168.116898 14.261602
v 3.432946 168.046371 14.262854
v 3.418007 167.977493 14.265936
v 3.390035 167.912872 14.270758
v 3.350096 167.855042 14.277105
v 3.299740 167.806259 14.284765
v 3.240885 167.768234 14.293417
v 3.175809 167.742676 14.302740
v 3.107002 167.730408 14.312368
v 3.037118 167.731827 14.321951
v 2.968831 167.747116 14.331091
v 3.073262 168.088516 14.270376
f 3 2 1
f 4 3 1
f 5 4 1
f 6 5 1
f 7 6 1
f 8 7 1
f 9 8 1
f 10 9 1
f 11 10 1
f 12 11 1
f 13 12 1
f 14 13 1
f 15 14 1
f 16 15 1
f 17 16 1
f 18 17 1
f 19 18 1
f 20 19 1
f 21 20 1
f 22 21 1
f 23 22 1
f 24 23 1
f 25 24 1
f 26 25 1
f 27 26 1
f 28 27 1
f 29 28 1
f 30 29 1
f 31 30 1
f 32 31 1
f 33 32 1
f 2 33 1
f 2 3 34
f 34 3 35
f 3 4 35
f 35 4 36
f 4 5 36
f 36 5 37
f 5 6 37
f 37 6 38
f 6 7 38
f 38 7 39
f 7 8 39
f 39 8 40
f 8 9 40
f 40 9 41
f 9 10 41
f 41 10 42
f 11 43 10
f 10 43 42
f 12 44 11
f 11 44 43
f 13 45 12
f 12 45 44
f 14 46 13
f 13 46 45
f 15 47 14
f 14 47 46
f 16 48 15
f 15 48 47
f 17 49 16
f 16 49 48
f 17 18 49
f 49 18 50
f 18 19 50
f 50 19 51
f 19 20 51
f 51 20 52
f 20 21 52
f 52 21 53
f 21 22 53
f 53 22 54
f 22 23 54
f 54 23 55
f 23 24 55
f 55 24 56
f 25 57 24
f 24 57 56
f 26 58 25
f 25 58 57
f 27 59 26
f 26 59 58
f 28 60 27
f 27 60 59
f 29 61 28
f 28 61 60
f 30 62 29
f 29 62 61
f 31 63 30
f 30 63 62
f 32 64 31
f 31 64 63
f 33 65 32
f 32 65 64
f 2 34 33
f 33 34 65
f 34 35 66
f 66 35 67
f 35 36 67
f 67 36 68
f 36 37 68
f 68 37 69
f 37 38 69
f 69 38 70
f 38 39 70
f 70 39 71
f 39 40 71
f 71 40 72
f 40 41 72
f 72 41 73
f 41 42 73
f 73 42 74
f 42 43 74
f 74 43 75
f 43 44 75
f 75 44 76
f 44 45 76
f 76 45 77
f 45 46 77
f 77 46 78
f 46 47 78
f 78 47 79
f 47 48 79
f 79 48 80
f 48 49 80
f 80 49 81
f 49 50 81
f 81 50 82
f 50 51 82
f 82 51 83
f 51 52 83
f 83 52 84
f 52 53 84
f 84 53 85
f 54 86 53
f 53 86 85
f 55 87 54
f 54 87 86
f 56 88 55
f 55 88 87
f 57 89 56
f 56 89 88
f 58 90 57
f 57 90 89
f 59 91 58
f 58 91 90
f 59 60 91
f 91 60 92
f 60 61 92
f 92 61 93
f 61 62 93
f 93 62 94
f 62 63 94
f 94 63 95
f 63 64 95
f 95 64 96
f 64 65 96
f 96 65 97
f 65 34 97
f 97 34 66
f 66 67 98
f 98 67 99
f 67 68 99
f 99 68 100
f 68 69 100
f 100 69 101
f 69 70 101
f 101 70 102
f 70 71 102
f 102 71 103
f 71 72 103
f 103 72 104
f 72 73 104
f 104 73 105
f 73 74 105
f 105 74 106
f 74 75 106
f 106 75 107
f 75 76 107
f 107 76 108
f 76 77 108
f 108 77 109
f 77 78 109
f 109 78 110
f 78 79 110
f 110 79 111
f 79 80 111
f 111 80 112
f 80 81 112
f 112 81 113
f 81 82 113
f 113 82 114
f 82 83 114
f 114 83 115
f 84 116 83
f 83 116 115
f 85 117 84
f 84 117 116
f 86 118 85
f 85 118 117
f 87 119 86
f 86 119 118
f 88 120 87
f 87 120 119
f 89 121 88
f 88 121 120
f 90 122 89
f 89 122 121
f 90 91 122
f 122 91 123
f 91 92 123
f 123 92 124
f 92 93 124
f 124 93 125
f 93 94 125
f 125 94 126
f 94 95 126
f 126 95 127
f 95 96 127
f 127 96 128
f 96 97 128
f 128 97 129
f 97 66 129
f 129 66 98
f 98 99 130
f 130 99 131
f 99 100 131
f 131 100 132
f 100 101 132
f 132 101 133
f 101 102 133
f 133 102 134
f 102 103 134
f 134 103 135
f 103 104 135
f 135 104 136
f 104 105 136
f 136 105 137
f 105 106 137
f 137 106 138
f 106 107 138
f 138 107 139
f 107 108 139
f 139 108 140
f 108 109 140
f 140 109 141
f 109 110 141
f 141 110 142
f 110 111 142
f 142 111 143
f 111 112 143
f 143 112 144
f 112 113 144
f 144 113 145
f 113 114 145
f 145 114 146
f 115 147 114
f 114 147 146
f 116 148 115
f 115 148 147
f 117 149 116
f 116 149 148
f 118 150 117
f 117 150 149
f 119 151 118
f 118 151 150
f 120 152 119
f 119 152 151
f 121 153 120
f 120 153 152
f 122 154 121
f 121 154 153
f 122 123 154
f 154 123 155
f 123 124 155
f 155 124 156
f 124 125 156
f 156 125 157
f 125 126 157
f 157 126 158
f 126 127 158
f 158 127 159
f 127 128 159
f 159 128 160
f 128 129 160
f 160 129 161
f 129 98 161
f 161 98 130
f 130 131 162
f 162 131 163
f 131 132 163
f 163 132 164
f 132 133 164
f 164 133 165
f 133 134 165
f 165 134 166
f 134 135 166
f 166 135 167
f 135 136 167
f 167 136 168
f 136 137 168
f 168 137 169
f 137 138 169
f 169 138 170
f 138 139 170
f 170 139 171
f 139 140 171
f 171 140 172
f 140 141 172
f 172 141 173
f 141 142 173
f 173 142 174
f 142 143 174
f 174 143 175
f 143 144 175
f 175 144 176
f 144 145 176
f 176 145 177
f 145 146 177
f 177 146 178
f 147 179 146
f 146 179 178
f 148 180 147
f 147 180 179
f 149 181 148
f 148 181 180
f 150 182 149
f 149 182 181
f 151 183 150
f 150 183 182
f 152 184 151
f 151 184 183
f 153 185 152
f 152 185 184
f 153 154 185
f 185 154 186
f 154 155 186
f 186 155 187
f 155 156 187
f 187 156 188
f 156 157 188
f 188 157 189
f 157 158 189
f 189 158 190
f 158 159 190
f 190 159 191
f 159 160 191
f 191 160 192
f 160 161 192
f 192 161 193
f 161 130 193
f 193 130 162
f 162 163 194
f 194 163 195
f 163 164 195
f 195 164 196
f 164 165 196
f 196 165 197
f 165 166 197
f 197 166 198
f 166 167 198
f 198 167 199
f 167 168 199
f 199 168 200
f 168 169 200
f 200 169 201
f 169 170 201
f 201 170 202
f 170 171 202
f 202 171 203
f 171 172 203
f 203 172 204
f 172 173 204
f 204 173 205
f 173 174 205
f 205 174 206
f 174 175 206
f 206 175 207
f 175 176 207
f 207 176 208
f 176 177 208
f 208 177 209
f 178 210 177
f 177 210 209
f 179 211 178
f 178 211 210
f 180 212 179
f 179 212 211
f 181 213 180
f 180 213 212
f 182 214 181
f 181 214 213
f 183 215 182
f 182 215 214
f 184 216 183
f 183 216 215
f 185 217 184
f 184 217 216
f 185 186 217
f 217 186 218
f 186 187 218
f 218 187 219
f 187 188 219
f 219 188 220
f 188 189 220
f 220 189 221
f 189 190 221
f 221 190 222
f 190 191 222
f 222 191 223
f 191 192 223
f 223 192 224
f 192 193 224
f 224 193 225
f 193 162 225
f 225 162 194
f 194 195 226
f 226 195 227
f 195 196 227
f 227 196 228
f 196 197 228
f 228 197 229
f 197 198 229
f 229 198 230
f 198 199 230
f 230 199 231
f 199 200 231
f 231 200 232
f 200 201 232
f 232 201 233
f 201 202 233
f 233 202 234
f 202 203 234
f 234 203 235
f 203 204 235
f 235 204 236
f 204 205 236
f 236 205 237
f 205 206 237
f 237 206 238
f 206 207 238
f 238 207 239
f 207 208 239
f 239 208 240
f 208 209 240
f 240 209 241
f 210 242 209
f 209 242 241
f 211 243 210
f 210 243 242
f 212 244 211
f 211 244 243
f 213 245 212
f 212 245 244
f 214 246 213
f 213 246 245
f 215 247 214
f 214 247 246
f 216 248 215
f 215 248 247
f 217 249 216
f 216 249 248
f 217 218 249
f 249 218 250
f 218 219 250
f 250 219 251
f 219 220 251
f 251 220 252
f 220 221 252
f 252 221 253
f 221 222 253
f 253 222 254
f 222 223 254
f 254 223 255
f 223 224 255
f 255 224 256
f 224 225 256
f 256 225 257
f 225 194 257
f 257 194 226
f 226 227 258
f 258 227 259
f 227 228 259
f 259 228 260
f 228 229 260
f 260 229 261
f 229 230 261
f 261 230 262
f 230 231 262
f 262 231 263
f 231 232 263
f 263 232 264
f 232 233 264
f 264 233 265
f 233 234 265
f 265 234 266
f 234 235 266
f 266 235 267
f 235 236 267
f 267 236 268
f 236 237 268
f 268 237 269
f 237 238 269
f 269 238 270
f 238 239 270
f 270 239 271
f 239 240 271
f 271 240 272
f 240 241 272
f 272 241 273
f 242 274 241
f 241 274 273
f 243 275 242
f 242 275 274
f 244 276 243
f 243 276 275
f 245 277 244
f 244 277 276
f 246 278 245
f 245 278 277
f 247 279 246
f 246 279 278
f 248 280 247
f 247 280 279
f 248 249 280
f 280 249 281
f 249 250 281
f 281 250 282
f 250 251 282
f 282 251 283
f 251 252 283
f 283 252 284
f 252 253 284
f 284 253 285
f 253 254 285
f 285 254 286
f 254 255 286
f 286 255 287
f 255 256 287
f 287 256 288
f 256 257 288
f 288 257 289
f 257 226 289
f 289 226 258
f 258 259 290
f 290 259 291
f 259 260 291
f 291 260 292
f 260 261 292
f 292 261 293
f 261 262 293
f 293 262 294
f 262 263 294
f 294 263 295
f 263 264 295
f 295 264 296
f 264 265 296
f 296 265 297
f 265 266 297
f 297 266 298
f 266 267 298
f 298 267 299
f 267 268 299
f 299 268 300
f 268 269 300
f 300 269 301
f 269 270 301
f 301 270 302
f 270 271 302
f 302 271 303
f 271 272 303
f 303 272 304
f 272 273 304
f 304 273 305
f 274 306 273
f 273 306 305
f 275 307 274
f 274 307 306
f 276 308 275
f 275 308 307
f 277 309 276
f 276 309 308
f 278 310 277
f 277 310 309
f 279 311 278
f 278 311 310
f 279 280 311
f 311 280 312
f 280 281 312
f 312 281 313
f 281 282 313
f 313 282 314
f 282 283 314
f 314 283 315
f 283 284 315
f 315 284 316
f 284 285 316
f 316 285 317
f 285 286 317
f 317 286 318
f 286 287 318
f 318 287 319
f 287 288 319
f 319 288 320
f 288 289 320
f 320 289 321
f 289 258 321
f 321 258 290
f 290 291 322
f 322 291 323
f 291 292 323
f 323 292 324
f 292 293 324
f 324 293 325
f 293 294 325
f 325 294 326
f 294 295 326
f 326 295 327
f 295 296 327
f 327 296 328
f 296 297 328
f 328 297 329
f 297 298 329
f 329 298 330
f 298 299 330
f 330 299 331
f 299 300 331
f 331 300 332
f 300 301 332
f 332 301 333
f 301 302 333
f 333 302 334
f 302 303 334
f 334 303 335
f 303 304 335
f 335 304 336
f 304 305 336
f 336 305 337
f 305 306 337
f 337 306 338
f 307 339 306
f 306 339 338
f 308 340 307
f 307 340 339
f 309 341 308
f 308 341 340
f 309 310 341
f 341 310 342
f 310 311 342
f 342 311 343
f 311 312 343
f 343 312 344
f 312 313 344
f 344 313 345
f 313 314 345
f 345 314 346
f 314 315 346
f 346 315 347
f 315 316 347
f 347 316 348
f 316 317 348
f 348 317 349
f 317 318 349
f 349 318 350
f 318 319 350
f 350 319 351
f 319 320 351
f 351 320 352
f 320 321 352
f 352 321 353
f 321 290 353
f 353 290 322
f 322 323 354
f 354 323 355
f 323 324 355
f 355 324 356
f 324 325 356
f 356 325 357
f 325 326 357
f 357 326 358
f 326 327 358
f 358 327 359
f 327 328 359
f 359 328 360
f 328 329 360
f 360 329 361
f 329 330 361
f 361 330 362
f 330 331 362
f 362 331 363
f 331 332 363
f 363 332 364
f 332 333 364
f 364 333 365
f 333 334 365
f 365 334 366
f 334 335 366
f 366 335 367
f 335 336 367
f 367 336 368
f 336 337 368
f 368 337 369
f 337 338 369
f 369 338 370
f 338 339 370
f 370 339 371
f 339 340 371
f 371 340 372
f 340 341 372
f 372 341 373
f 341 342 373
f 373 342 374
f 342 343 374
f 374 343 375
f 343 344 375
f 375 344 376
f 344 345 376
f 376 345 377
f 345 346 377
f 377 346 378
f 346 347 378
f 378 347 379
f 347 348 379
f 379 348 380
f 348 349 380
f 380 349 381
f 349 350 381
f 381 350 382
f 350 351 382
f 382 351 383
f 351 352 383
f 383 352 384
f 352 353 384
f 384 353 385
f 353 322 385
f 385 322 354
f 354 355 386
f 386 355 387
f 355 356 387
f 387 356 388
f 356 357 388
f 388 357 389
f 357 358 389
f 389 358 390
f 358 359 390
f 390 359 391
f 359 360 391
f 391 360 392
f 360 361 392
f 392 361 393
f 361 362 393
f 393 362 394
f 362 363 394
f 394 363 395
f 363 364 395
f 395 364 396
f 364 365 396
f 396 365 397
f 365 366 397
f 397 366 398
f 366 367 398
f 398 367 399
f 367 368 399
f 399 368 400
f 368 369 400
f 400 369 401
f 369 370 401
f 401 370 402
f 370 371 402
f 402 371 403
f 371 372 403
f 403 372 404
f 372 373 404
f 404 373 405
f 373 374 405
f 405 374 406
f 374 375 406
f 406 375 407
f 375 376 407
f 407 376 408
f 376 377 408
f 408 377 409
f 377 378 409
f 409 378 410
f 378 379 410
f 410 379 411
f 379 380 411
f 411 380 412
f 380 381 412
f 412 381 413
f 381 382 413
f 413 382 414
f 382 383 414
f 414 383 415
f 383 384 415
f 415 384 416
f 384 385 416
f 416 385 417
f 385 354 417
f 417 354 386
f 386 387 418
f 418 387 419
f 387 388 419
f 419 388 420
f 388 389 420
f 420 389 421
f 389 390 421
f 421 390 422
f 390 391 422
f 422 391 423
f 391 392 423
f 423 392 424
f 392 393 424
f 424 393 425
f 393 394 425
f 425 394 426
f 394 395 426
f 426 395 427
f 395 396 427
f 427 396 428
f 396 397 428
f 428 397 429
f 397 398 429
f 429 398 430
f 398 399 430
f 430 399 431
f 399 400 431
f 431 400 432
f 400 401 432
f 432 401 433
f 401 402 433
f 433 402 434
f 402 403 434
f 434 403 435
f 403 404 435
f 435 404 436
f 404 405 436
f 436 405 437
f 405 406 437
f 437 406 438
f 406 407 438
f 438 407 439
f 407 408 439
f 439 408 440
f 408 409 440
f 440 409 441
f 409 410 441
f 441 410 442
f 410 411 442
f 442 411 443
f 411 412 443
f 443 412 444
f 412 413 444
f 444 413 445
f 413 414 445
f 445 414 446
f 414 415 446
f 446 415 447
f 415 416 447
f 447 416 448
f 416 417 448
f 448 417 449
f 417 386 449
f 449 386 418
f 418 419 450
f 450 419 451
f 419 420 451
f 451 420 452
f 420 421 452
f 452 421 453
f 421 422 453
f 453 422 454
f 422 423 454
f 454 423 455
f 423 424 455
f 455 424 456
f 424 425 456
f 456 425 457
f 425 426 457
f 457 426 458
f 426 427 458
f 458 427 459
f 427 428 459
f 459 428 460
f 428 429 460
f 460 429 461
f 429 430 461
f 461 430 462
f 430 431 462
f 462 431 463
f 431 432 463
f 463 432 464
f 432 433 464
f 464 433 465
f 433 434 465
f 465 434 466
f 434 435 466
f 466 435 467
f 435 436 467
f 467 436 468
f 436 437 468
f 468 437 469
f 437 438 469
f 469 438 470
f 438 439 470
f 470 439 471
f 439 440 471
f 471 440 472
f 440 441 472
f 472 441 473
f 441 442 473
f 473 442 474
f 442 443 474
f 474 443 475
f 443 444 475
f 475 444 476
f 444 445 476
f 476 445 477
f 445 446 477
f 477 446 478
f 446 447 478
f 478 447 479
f 447 448 479
f 479 448 480
f 448 449 480
f 480 449 481
f 449 418 481
f 481 418 450
f 451 482 450
f 452 482 451
f 453 482 452
f 454 482 453
f 455 482 454
f 456 482 455
f 457 482 456
f 458 482 457
f 459 482 458
f 460 482 459
f 461 482 460
f 462 482 461
f 463 482 462
f 464 482 463
f 465 482 464
f 466 482 465
f 467 482 466
f 468 482 467
f 469 482 468
f 470 482 469
f 471 482 470
f 472 482 471
f 473 482 472
f 474 482 473
f 475 482 474
f 476 482 475
f 477 482 476
f 478 482 477
f 479 482 478
f 480 482 479
f 481 482 480
f 450 482 481
