# This file uses centimeters as units for non-parametric coordinates.

v -22.805536 44.263466 -0.761978
v -18.459145 44.228966 -0.768890
v -18.463839 44.224129 -1.201965
v -22.810406 44.259117 -1.195061
v -22.787960 45.338554 -1.432381
v -22.779093 45.346611 -0.578369
v -22.785292 45.081673 -0.622498
v -22.793242 45.074471 -1.373619
v -18.435877 45.304710 -1.442116
v -18.427355 45.313683 -0.588142
v -22.808617 43.789818 -0.046280
v -18.464731 43.755638 -0.051872
v -18.459446 44.064491 -0.364906
v -22.804895 44.098709 -0.358452
v -22.777573 45.021675 0.220604
v -22.783819 44.413040 0.840233
v -22.789734 44.260567 0.623642
v -22.784002 44.795967 0.079514
v -18.427689 44.989288 0.211739
v -18.437033 44.380753 0.833061
v -22.853544 42.919182 -2.046585
v -18.512695 42.881821 -2.049728
v -18.523510 42.474907 -1.879814
v -22.862436 42.512535 -1.877800
v -22.888527 41.894814 -2.773834
v -22.870173 42.697327 -3.103027
v -22.866224 42.751335 -2.844635
v -22.882206 42.045647 -2.554382
v -18.529787 42.165550 -1.571518
v -22.867151 42.203163 -1.570374
v -22.898596 41.284103 -2.169792
v -22.890917 41.508629 -2.023117
v -18.564711 41.245064 -2.169792
v -18.551554 41.855766 -2.773987
v -22.818882 44.086235 -1.591644
v -18.472906 44.050613 -1.598053
v -18.485256 43.734596 -1.897499
v -22.829931 43.770874 -1.891975
v -22.823881 44.377113 -2.800034
v -22.803349 44.998360 -2.211594
v -22.807070 44.775154 -2.059471
v -22.825422 44.228630 -2.577835
v -18.475588 44.340813 -2.807053
v -18.452471 44.963348 -2.220367
v -18.530336 42.001007 -1.170578
v -22.866747 42.038322 -1.169891
v -22.898016 40.958984 -1.380455
v -22.890352 41.222740 -1.328987
v -22.816355 43.383827 0.125755
v -18.474409 43.349434 0.121292
v -22.797731 43.612968 1.182266
v -22.802267 43.556740 0.923851
v -22.827175 42.942352 0.130821
v -18.487253 42.907509 0.127602
v -22.818132 42.742897 1.191811
v -22.820435 42.791466 0.932365
v -18.454773 43.580284 1.177353
v -18.479185 42.709396 1.189339
v -18.525023 42.006310 -0.737396
v -22.861258 42.043098 -0.736702
v -22.886681 40.968666 -0.526146
v -22.880495 41.231224 -0.577621
v -18.555065 40.931252 -0.526146
v -18.566002 40.920509 -1.380455
v -18.514797 42.180519 -0.338127
v -22.851625 42.216652 -0.336937
v -22.866873 41.311348 0.263184
v -22.863232 41.532463 0.116501
v -22.842096 43.361092 -2.051552
v -18.499218 43.324196 -2.055931
v -22.847284 43.569023 -3.112175
v -22.846136 43.517868 -2.852852
v -18.529385 42.658821 -3.105347
v -18.502523 43.531479 -3.116928
v -18.501459 42.497047 -0.033936
v -22.839577 42.532486 -0.031860
v -22.842503 41.934669 0.867332
v -22.841906 42.080612 0.647827
v -18.507114 41.900002 0.867111
v -18.534060 41.275299 0.263184
v -22.875919 42.579124 -3.378822
v -22.894478 41.776474 -3.050476
v -18.557732 41.737083 -3.050476
v -18.535366 42.540283 -3.380730
v -22.907457 41.001869 -2.284340
v -22.906925 40.676697 -1.495049
v -18.575998 40.637894 -1.495049
v -18.574642 40.962486 -2.284340
v -22.791533 43.733780 1.457413
v -22.778044 44.533653 1.114662
v -18.430637 44.501884 1.107231
v -18.447985 43.701660 1.452232
v -22.892418 40.689049 -0.411598
v -22.872404 41.031868 0.377739
v -18.540764 40.995766 0.377739
v -18.561975 40.651604 -0.411598
v -22.770493 45.305351 0.327591
v -22.772091 45.630272 -0.472168
v -18.418915 45.597832 -0.482666
v -18.419180 45.273445 0.317993
v -22.841373 41.822380 1.143929
v -22.817066 42.630569 1.469284
v -18.478594 42.597420 1.467201
v -18.506449 41.788063 1.143898
v -22.823647 44.492668 -3.078651
v -22.846846 43.684662 -3.390121
v -18.501247 43.647057 -3.395119
v -18.474518 44.456306 -3.085907
v -22.783072 45.620247 -1.555206
v -22.798065 45.280304 -2.333557
v -18.445665 45.245567 -2.343040
v -18.429462 45.586678 -1.565651
v -22.801941 44.654327 -1.280937
v -22.795521 44.660103 -0.693748
v -22.794584 44.436607 -0.145760
v -22.799364 44.017876 0.278580
v -22.872063 42.286057 -2.205429
v -22.859774 42.837624 -2.433456
v -22.878662 41.866364 -1.789589
v -22.827797 43.992531 -2.224274
v -22.813110 44.419991 -1.817932
v -22.878178 41.642792 -1.246910
v -22.809526 43.467537 0.512566
v -22.823982 42.869026 0.519356
v -22.870592 41.649330 -0.659561
v -22.857307 41.884834 -0.116982
v -22.844147 43.436897 -2.440056
v -22.840803 42.313271 0.297867
v -22.435717 45.069946 -1.375122
v -22.427750 45.077263 -0.624016
v -22.438240 44.655586 -0.695068
v -22.444668 44.649742 -1.282257
v -22.426601 44.791588 0.078140
v -22.432621 44.256187 0.622520
v -22.442406 44.013397 0.277565
v -22.437412 44.432137 -0.146973
v -22.526321 42.040489 -2.554420
v -22.509960 42.746239 -2.845009
v -22.503494 42.832588 -2.433891
v -22.516050 42.280952 -2.205605
v -22.535307 41.503441 -2.023117
v -22.522871 41.861259 -1.789589
v -22.468376 44.223824 -2.578934
v -22.449734 44.770500 -2.060837
v -22.455971 44.415291 -1.819138
v -22.470894 43.987701 -2.225273
v -22.534891 41.217621 -1.328987
v -22.522493 41.637718 -1.246910
v -22.445518 43.552299 0.923080
v -22.452858 43.463005 0.511826
v -22.464094 42.786903 0.931969
v -22.467630 42.864410 0.518906
v -22.525005 41.226189 -0.577621
v -22.514906 41.644356 -0.659561
v -22.507568 41.527588 0.116501
v -22.501490 41.879974 -0.116982
v -22.489475 43.512909 -2.853600
v -22.487545 43.431969 -2.440781
v -22.485947 42.075912 0.647774
v -22.484741 42.308525 0.297684
v -23.334383 42.553810 -0.355682
v -23.323757 42.848869 -0.180237
v -21.119141 42.797417 -0.157951
v -21.130714 42.501976 -0.332733
v -23.311775 43.189415 -0.129601
v -21.106161 43.138283 -0.108147
v -23.300360 43.523491 -0.211723
v -21.093740 43.472649 -0.191101
v -23.291115 43.800468 -0.413803
v -21.083616 43.749657 -0.393913
v -23.285259 43.978249 -0.704529
v -21.077179 43.927292 -0.685066
v -23.283581 44.029678 -1.039085
v -21.075394 43.978546 -1.019722
v -23.286453 43.946877 -1.366295
v -21.078466 43.895409 -1.346710
v -23.293447 43.742577 -1.636719
v -21.086164 43.690666 -1.616638
v -23.303768 43.447632 -1.809731
v -21.097383 43.395363 -1.788895
v -23.315878 43.106979 -1.859497
v -21.110535 43.054314 -1.837868
v -23.327883 42.772453 -1.778709
v -21.123606 42.719612 -1.756256
v -23.337835 42.495155 -1.579239
v -21.134386 42.442238 -1.556183
v -23.344065 42.317322 -1.291008
v -21.141195 42.264458 -1.267502
v -23.345608 42.266075 -0.957359
v -21.142786 42.213341 -0.933701
v -23.342075 42.349129 -0.628769
v -21.139086 42.296860 -0.605339
v -23.314203 43.148010 -0.996368
v -18.049871 31.868290 5.674389
v -16.651979 28.601334 5.983660
v -18.561867 27.281294 5.041058
v -19.830318 31.014252 4.317686
v -16.529856 24.727448 5.568312
v -15.268088 26.976730 5.831774
v -13.985213 22.470955 4.886206
v -12.870044 24.230377 4.486717
v -12.375950 21.951942 3.647678
v -11.056297 22.910652 2.297853
v -12.569386 20.587265 3.641459
v -11.457916 20.525444 2.318037
v -12.810569 18.903847 3.653372
v -11.888475 17.973503 2.364466
v -12.957521 17.368874 3.667608
v -12.130739 15.858621 2.418368
v -14.339768 17.364548 4.662992
v -14.346299 15.877823 4.676104
v -14.137403 20.696159 4.785650
v -14.242949 18.868782 4.698116
v -18.956476 35.003487 5.132322
v -20.549826 34.378044 3.575064
v -19.303822 37.984932 4.542610
v -20.805950 37.650307 2.897766
v -19.280954 41.110954 3.801529
v -20.561415 40.700386 2.270958
v -19.059980 45.165108 3.007034
v -20.230232 43.190453 1.803452
v -20.048267 46.621952 0.464962
v -20.784401 43.667366 0.202911
v -19.981400 46.915047 -1.712482
v -20.770567 43.954025 -1.728584
v -18.960190 46.173512 -4.052555
v -20.286613 43.986015 -3.263023
v -19.116447 43.147079 -5.281425
v -20.618113 41.983360 -3.887924
v -19.141579 41.014992 -6.044998
v -20.842937 39.493515 -4.610771
v -19.032991 38.922142 -6.849152
v -20.618120 37.255852 -5.642075
v -18.851460 36.282570 -7.669479
v -20.346945 34.925064 -6.526207
v -18.340206 33.684715 -8.278648
v -19.925993 32.393166 -7.170532
v -17.504629 31.268501 -8.535324
v -19.163359 29.933823 -7.620377
v -16.605354 29.185064 -8.476564
v -18.391964 27.779190 -7.630859
v -15.491917 27.171728 -8.105028
v -16.894609 26.003374 -7.637487
v -14.197465 25.319006 -7.445734
v -15.498452 24.239441 -7.275721
v -13.014123 23.935524 -6.672350
v -13.614898 22.608238 -6.622953
v -11.531614 22.909500 -5.183710
v -12.038600 21.537994 -5.337893
v -10.862875 22.581200 -4.050386
v -11.150869 21.273193 -4.040888
v -10.440519 22.353912 -1.539408
v -10.646843 21.189751 -2.676821
v -10.638340 20.168015 -1.373907
v -10.847448 20.041862 -2.538961
v -10.745687 19.321259 -1.276781
v -11.066086 18.621834 -2.471153
v -11.016403 17.538246 -1.067019
v -11.186192 17.454071 -2.264441
v -11.351268 15.487709 -0.729883
v -11.270492 16.392151 -1.945925
v -11.707696 15.150665 -2.849245
v -11.716931 16.164452 -3.228617
v -11.713807 17.297142 -3.537470
v -11.611517 18.550972 -3.766283
v -11.399686 19.885872 -3.924440
v -12.733199 14.854003 -4.168773
v -12.677735 15.883278 -4.370596
v -14.254691 14.432426 -4.953844
v -14.300602 15.452301 -5.199568
v -16.111647 13.869774 -5.087017
v -16.181463 14.915268 -5.291353
v -17.771667 13.267891 -4.673340
v -17.822458 14.478066 -4.846631
v -19.196552 12.461769 -3.976521
v -19.226328 14.063133 -4.120338
v -20.434956 11.719574 -3.208485
v -20.639221 13.109084 -2.876090
v -21.606684 10.621429 -2.402903
v -21.429745 12.131035 -1.991119
v -23.638313 9.130104 -1.203623
v -22.303780 11.209244 -0.844809
v -15.858286 17.129372 5.068365
v -15.826073 15.642281 5.097898
v -17.597797 16.783707 4.797693
v -17.485249 15.363823 4.906218
v -18.832840 16.310232 4.005167
v -18.789265 14.879218 4.313293
v -20.079056 15.512383 2.864445
v -20.171217 14.107155 3.277115
v -21.024994 14.345231 1.647530
v -21.303232 13.183189 2.193251
v -21.784531 12.993987 0.307614
v -22.392521 11.650063 0.829584
v -15.962045 18.806122 5.122904
v -16.110691 20.650604 5.235937
v -17.678808 18.564186 4.803782
v -17.895561 20.491692 4.846161
v -18.981165 18.147606 3.737869
v -19.276686 20.171608 3.617083
v -20.225842 17.426804 2.514009
v -20.527250 19.665970 2.278217
v -21.034786 16.342567 0.946501
v -21.303686 18.905144 0.500502
v -21.311623 15.434532 -1.144823
v -21.355442 18.071953 -1.517767
v -20.551210 15.327644 -2.990255
v -20.582397 18.147751 -3.372431
v -19.355114 15.793053 -4.279432
v -19.285753 18.187569 -4.761572
v -17.861603 16.187103 -5.231977
v -17.686724 18.235252 -5.652308
v -16.042816 16.510452 -5.684187
v -15.879240 18.309540 -6.060911
v -14.230447 16.815392 -5.492670
v -14.077978 18.412277 -5.838552
v -12.721738 17.091164 -4.684902
v -12.595346 18.476768 -4.970198
v -12.354036 20.001633 -5.237951
v -13.859566 20.275055 -6.248583
v -15.709187 20.296661 -6.476706
v -17.508348 20.383720 -5.997168
v -19.217810 20.540169 -5.206976
v -20.620468 20.758316 -3.842802
v -21.493793 20.949287 -2.100702
v -21.590437 21.479927 0.015966
v -20.844288 22.043312 2.056499
v -19.635963 22.385704 3.525978
v -18.080051 22.327385 4.943975
v -16.239307 22.308403 5.376705
v -15.555502 22.375885 -6.876310
v -17.387781 22.476929 -6.583624
v -19.156473 22.813499 -5.887613
v -20.625420 23.155861 -4.555178
v -21.589869 23.573654 -2.874582
v -21.842007 24.066750 -0.671423
v -21.267746 24.503952 1.556601
v -20.049959 24.781858 3.326376
v -18.313938 24.626389 5.025299
v -17.188654 24.433144 -7.146646
v -18.826099 24.951767 -6.568026
v -20.113245 25.720795 -6.045168
v -21.609936 26.230492 -3.931803
v -22.106966 26.772322 -1.557880
v -21.735695 27.205359 0.888889
v -20.548683 27.458227 3.009251
v -19.867001 28.327452 -6.780489
v -21.101242 29.316957 -5.784369
v -22.303776 29.692513 -2.609749
v -22.250845 30.255360 0.039074
v -21.358797 30.663742 2.379023
v -21.410252 40.797691 0.367973
v -21.438314 41.101524 -1.912811
v -21.854227 37.538551 0.738861
v -21.966608 37.475334 -2.244751
v -21.851141 34.062378 1.557365
v -22.404503 33.623955 -0.963821
v -21.649242 35.410561 -4.231339
v -22.148577 32.702866 -3.358894
v -21.342712 34.277649 -5.302055
v -21.397623 32.071617 -5.462837
v -11.434566 22.477280 1.913128
v -11.069946 22.116699 0.776119
v -10.787596 21.934608 -0.460135
v -10.690670 21.923096 -1.380659
v -12.314650 16.063530 2.081518
v -11.970086 15.875664 1.177397
v -11.769783 15.763092 0.179873
v -11.591834 15.709770 -0.598375
v -11.157329 17.557991 -0.875212
v -11.206406 17.619217 0.033993
v -11.504910 17.774849 1.188700
v -11.913510 17.839859 2.090036
v -10.867359 19.360352 -1.062309
v -10.937511 19.419312 -0.083691
v -11.258134 19.602036 1.101788
v -11.695944 19.745415 2.046963
v -10.720057 20.287697 -1.171255
v -10.810360 20.326759 -0.165117
v -11.106325 20.481445 0.989531
v -11.475986 20.706474 2.073433
v -11.932106 23.525505 3.542292
v -10.458580 22.366943 -2.526789
v -11.393397 15.357156 -1.769362
v -13.086906 15.918320 3.745284
v -22.986744 10.363640 -0.081347
v -22.844631 9.698524 -1.726751
v -21.644238 12.967453 -0.959110
v -11.182048 16.523926 -0.900251
v -11.305562 16.640663 -0.765921
v -11.349537 16.721161 0.187769
v -11.601871 16.844902 1.264299
v -11.995535 16.952759 2.125658
v -11.994402 17.044754 2.408071
v -10.503393 21.164619 -1.437304
v -10.596600 21.110054 -1.260500
v -10.658508 21.146362 -0.295357
v -10.958250 21.301750 0.926889
v -11.295245 21.576752 2.124342
v -11.280384 21.579811 2.309114
v -10.859519 18.571533 -1.188581
v -10.995858 18.529564 -0.980375
v -11.056245 18.610031 -0.017946
v -11.357385 18.742836 1.149887
v -11.734092 18.917336 2.181726
v -11.752438 18.973000 2.349945
v -14.065774 25.525856 5.338709
v -15.405931 23.462105 5.439754
v -17.580454 31.891750 5.027012
v -16.397182 28.678642 5.229269
v -15.306119 27.065254 5.037596
v -13.268864 24.369789 3.807373
v -11.801188 23.050041 2.041517
v -12.915869 15.935234 2.285316
v -14.687309 15.869292 3.952474
v -18.398510 35.009399 4.559053
v -18.712952 37.894043 4.011002
v -18.663649 40.976494 3.310760
v -18.386427 44.997078 2.609428
v -19.288116 46.429985 0.305847
v -19.231842 46.685905 -1.552307
v -18.314238 45.927116 -3.650017
v -18.506371 42.933220 -4.810181
v -18.552294 40.832817 -5.535530
v -18.459644 38.764389 -6.314003
v -18.309742 36.179764 -7.089851
v -17.875107 33.661552 -7.628151
v -17.178638 31.346136 -7.808893
v -16.387510 29.359266 -7.726763
v -15.395830 27.369555 -7.335852
v -14.308667 25.527840 -6.681519
v -13.370888 24.102348 -5.976011
v -12.112491 23.054407 -4.653069
v -11.567782 22.723373 -3.699831
v -11.225743 22.417671 -1.678537
v -12.086969 15.545158 -1.038822
v -12.424770 15.262299 -2.512579
v -13.248455 14.997009 -3.573744
v -14.487425 14.595725 -4.206069
v -16.075190 14.025414 -4.303148
v -17.526997 13.391647 -3.921793
v -18.828032 12.538315 -3.270594
v -19.879534 11.645515 -2.637501
v -21.094006 10.404610 -1.828318
v -23.026575 8.690872 -0.933718
v -15.874394 15.625374 4.299538
v -17.244850 15.332611 4.143831
v -18.319363 14.779694 3.673538
v -19.542274 13.909614 2.823895
v -20.623833 12.881621 1.897494
v -21.665390 11.319481 0.784882
v -12.207929 22.459160 2.117041
v -11.838108 21.974739 0.603565
v -11.568227 21.798332 -0.569887
v -11.299886 21.845543 -1.893339
v -13.085876 16.273087 2.117516
v -12.670268 16.171188 0.927576
v -12.482726 16.077316 -0.001715
v -12.236194 15.836639 -1.055218
v -12.471401 23.660177 2.966944
v -11.242787 22.478004 -2.414164
v -12.176902 15.459732 -1.644468
v -13.648236 15.935059 3.175522
v -22.306561 9.959801 0.038067
v -22.264647 9.311539 -1.334501
v -14.319107 25.653740 4.590733
v 22.805536 44.263466 -0.761978
v 22.810406 44.259117 -1.195061
v 18.463839 44.224129 -1.201965
v 18.459145 44.228966 -0.768890
v 22.787960 45.338554 -1.432381
v 22.793242 45.074471 -1.373619
v 22.785292 45.081673 -0.622498
v 22.779093 45.346611 -0.578369
v 18.427355 45.313683 -0.588142
v 18.435877 45.304710 -1.442116
v 22.808617 43.789818 -0.046280
v 22.804895 44.098709 -0.358452
v 18.459446 44.064491 -0.364906
v 18.464731 43.755638 -0.051872
v 22.777573 45.021675 0.220604
v 22.784002 44.795967 0.079514
v 22.789734 44.260567 0.623642
v 22.783819 44.413040 0.840233
v 18.437033 44.380753 0.833061
v 18.427689 44.989288 0.211739
v 22.853544 42.919182 -2.046585
v 22.862436 42.512535 -1.877800
v 18.523510 42.474907 -1.879814
v 18.512695 42.881821 -2.049728
v 22.888527 41.894814 -2.773834
v 22.882206 42.045647 -2.554382
v 22.866224 42.751335 -2.844635
v 22.870173 42.697327 -3.103027
v 22.867151 42.203163 -1.570374
v 18.529787 42.165550 -1.571518
v 22.898596 41.284103 -2.169792
v 22.890917 41.508629 -2.023117
v 18.551554 41.855766 -2.773987
v 18.564711 41.245064 -2.169792
v 22.818882 44.086235 -1.591644
v 22.829931 43.770874 -1.891975
v 18.485256 43.734596 -1.897499
v 18.472906 44.050613 -1.598053
v 22.823881 44.377113 -2.800034
v 22.825422 44.228630 -2.577835
v 22.807070 44.775154 -2.059471
v 22.803349 44.998360 -2.211594
v 18.452471 44.963348 -2.220367
v 18.475588 44.340813 -2.807053
v 22.866747 42.038322 -1.169891
v 18.530336 42.001007 -1.170578
v 22.898016 40.958984 -1.380455
v 22.890352 41.222740 -1.328987
v 22.816355 43.383827 0.125755
v 18.474409 43.349434 0.121292
v 22.802267 43.556740 0.923851
v 22.797731 43.612968 1.182266
v 22.827175 42.942352 0.130821
v 18.487253 42.907509 0.127602
v 22.820435 42.791466 0.932365
v 22.818132 42.742897 1.191811
v 18.479185 42.709396 1.189339
v 18.454773 43.580284 1.177353
v 22.861258 42.043098 -0.736702
v 18.525023 42.006310 -0.737396
v 22.886681 40.968666 -0.526146
v 22.880495 41.231224 -0.577621
v 18.566002 40.920509 -1.380455
v 18.555065 40.931252 -0.526146
v 22.851625 42.216652 -0.336937
v 18.514797 42.180519 -0.338127
v 22.866873 41.311348 0.263184
v 22.863232 41.532463 0.116501
v 22.842096 43.361092 -2.051552
v 18.499218 43.324196 -2.055931
v 22.846136 43.517868 -2.852852
v 22.847284 43.569023 -3.112175
v 18.502523 43.531479 -3.116928
v 18.529385 42.658821 -3.105347
v 22.839577 42.532486 -0.031860
v 18.501459 42.497047 -0.033936
v 22.842503 41.934669 0.867332
v 22.841906 42.080612 0.647827
v 18.534060 41.275299 0.263184
v 18.507114 41.900002 0.867111
v 22.875919 42.579124 -3.378822
v 18.535366 42.540283 -3.380730
v 18.557732 41.737083 -3.050476
v 22.894478 41.776474 -3.050476
v 22.907457 41.001869 -2.284340
v 18.574642 40.962486 -2.284340
v 18.575998 40.637894 -1.495049
v 22.906925 40.676697 -1.495049
v 22.791533 43.733780 1.457413
v 18.447985 43.701660 1.452232
v 18.430637 44.501884 1.107231
v 22.778044 44.533653 1.114662
v 22.892418 40.689049 -0.411598
v 18.561975 40.651604 -0.411598
v 18.540764 40.995766 0.377739
v 22.872404 41.031868 0.377739
v 22.770493 45.305351 0.327591
v 18.419180 45.273445 0.317993
v 18.418915 45.597832 -0.482666
v 22.772091 45.630272 -0.472168
v 22.841373 41.822380 1.143929
v 18.506449 41.788063 1.143898
v 18.478594 42.597420 1.467201
v 22.817066 42.630569 1.469284
v 22.823647 44.492668 -3.078651
v 18.474518 44.456306 -3.085907
v 18.501247 43.647057 -3.395119
v 22.846846 43.684662 -3.390121
v 22.783072 45.620247 -1.555206
v 18.429462 45.586678 -1.565651
v 18.445665 45.245567 -2.343040
v 22.798065 45.280304 -2.333557
v 22.801941 44.654327 -1.280937
v 22.795521 44.660103 -0.693748
v 22.794584 44.436607 -0.145760
v 22.799364 44.017876 0.278580
v 22.872063 42.286057 -2.205429
v 22.859774 42.837624 -2.433456
v 22.878662 41.866364 -1.789589
v 22.827797 43.992531 -2.224274
v 22.813110 44.419991 -1.817932
v 22.878178 41.642792 -1.246910
v 22.809526 43.467537 0.512566
v 22.823982 42.869026 0.519356
v 22.870592 41.649330 -0.659561
v 22.857307 41.884834 -0.116982
v 22.844147 43.436897 -2.440056
v 22.840803 42.313271 0.297867
v 22.435717 45.069946 -1.375122
v 22.444668 44.649742 -1.282257
v 22.438240 44.655586 -0.695068
v 22.427750 45.077263 -0.624016
v 22.426601 44.791588 0.078140
v 22.437412 44.432137 -0.146973
v 22.442406 44.013397 0.277565
v 22.432621 44.256187 0.622520
v 22.526321 42.040489 -2.554420
v 22.516050 42.280952 -2.205605
v 22.503494 42.832588 -2.433891
v 22.509960 42.746239 -2.845009
v 22.535307 41.503441 -2.023117
v 22.522871 41.861259 -1.789589
v 22.468376 44.223824 -2.578934
v 22.470894 43.987701 -2.225273
v 22.455971 44.415291 -1.819138
v 22.449734 44.770500 -2.060837
v 22.534891 41.217621 -1.328987
v 22.522493 41.637718 -1.246910
v 22.452858 43.463005 0.511826
v 22.445518 43.552299 0.923080
v 22.467630 42.864410 0.518906
v 22.464094 42.786903 0.931969
v 22.525005 41.226189 -0.577621
v 22.514906 41.644356 -0.659561
v 22.507568 41.527588 0.116501
v 22.501490 41.879974 -0.116982
v 22.487545 43.431969 -2.440781
v 22.489475 43.512909 -2.853600
v 22.485947 42.075912 0.647774
v 22.484741 42.308525 0.297684
v 23.334383 42.553810 -0.355682
v 21.130714 42.501976 -0.332733
v 21.119141 42.797417 -0.157951
v 23.323757 42.848869 -0.180237
v 21.106161 43.138283 -0.108147
v 23.311775 43.189415 -0.129601
v 21.093740 43.472649 -0.191101
v 23.300360 43.523491 -0.211723
v 21.083616 43.749657 -0.393913
v 23.291115 43.800468 -0.413803
v 21.077179 43.927292 -0.685066
v 23.285259 43.978249 -0.704529
v 21.075394 43.978546 -1.019722
v 23.283581 44.029678 -1.039085
v 21.078466 43.895409 -1.346710
v 23.286453 43.946877 -1.366295
v 21.086164 43.690666 -1.616638
v 23.293447 43.742577 -1.636719
v 21.097383 43.395363 -1.788895
v 23.303768 43.447632 -1.809731
v 21.110535 43.054314 -1.837868
v 23.315878 43.106979 -1.859497
v 21.123606 42.719612 -1.756256
v 23.327883 42.772453 -1.778709
v 21.134386 42.442238 -1.556183
v 23.337835 42.495155 -1.579239
v 21.141195 42.264458 -1.267502
v 23.344065 42.317322 -1.291008
v 21.142786 42.213341 -0.933701
v 23.345608 42.266075 -0.957359
v 21.139086 42.296860 -0.605339
v 23.342075 42.349129 -0.628769
v 23.314203 43.148010 -0.996368
v 18.049871 31.868290 5.674389
v 19.830318 31.014252 4.317686
v 18.561867 27.281294 5.041058
v 16.651979 28.601334 5.983660
v 16.529856 24.727448 5.568312
v 15.268088 26.976730 5.831774
v 12.569386 20.587265 3.641459
v 11.457916 20.525444 2.318037
v 11.280384 21.579811 2.309114
v 12.375950 21.951942 3.647678
v 12.810569 18.903847 3.653372
v 11.888475 17.973503 2.364466
v 11.752438 18.973000 2.349945
v 12.957521 17.368874 3.667608
v 12.130739 15.858621 2.418368
v 11.994402 17.044754 2.408071
v 13.985213 22.470955 4.886206
v 14.137403 20.696159 4.785650
v 14.242949 18.868782 4.698116
v 14.339768 17.364548 4.662992
v 20.549826 34.378044 3.575064
v 18.956476 35.003487 5.132322
v 19.303822 37.984932 4.542610
v 20.805950 37.650307 2.897766
v 19.280954 41.110954 3.801529
v 20.561415 40.700386 2.270958
v 19.059980 45.165108 3.007034
v 20.230232 43.190453 1.803452
v 20.048267 46.621952 0.464962
v 20.784401 43.667366 0.202911
v 20.770567 43.954025 -1.728584
v 19.981400 46.915047 -1.712482
v 20.286613 43.986015 -3.263023
v 18.960190 46.173512 -4.052555
v 19.116447 43.147079 -5.281425
v 20.618113 41.983360 -3.887924
v 20.842937 39.493515 -4.610771
v 19.141579 41.014992 -6.044998
v 20.618120 37.255852 -5.642075
v 19.032991 38.922142 -6.849152
v 18.851460 36.282570 -7.669479
v 20.346945 34.925064 -6.526207
v 18.340206 33.684715 -8.278648
v 19.925993 32.393166 -7.170532
v 19.163359 29.933823 -7.620377
v 17.504629 31.268501 -8.535324
v 18.391964 27.779190 -7.630859
v 16.605354 29.185064 -8.476564
v 15.491917 27.171728 -8.105028
v 16.894609 26.003374 -7.637487
v 15.498452 24.239441 -7.275721
v 14.197465 25.319006 -7.445734
v 13.614898 22.608238 -6.622953
v 13.014123 23.935524 -6.672350
v 12.038600 21.537994 -5.337893
v 11.531614 22.909500 -5.183710
v 11.150869 21.273193 -4.040888
v 10.862875 22.581200 -4.050386
v 10.638340 20.168015 -1.373907
v 10.847448 20.041862 -2.538961
v 10.646843 21.189751 -2.676821
v 10.503393 21.164619 -1.437304
v 10.745687 19.321259 -1.276781
v 11.066086 18.621834 -2.471153
v 11.186192 17.454071 -2.264441
v 10.859519 18.571533 -1.188581
v 11.016403 17.538246 -1.067019
v 11.351268 15.487709 -0.729883
v 11.270492 16.392151 -1.945925
v 11.182048 16.523926 -0.900251
v 11.716931 16.164452 -3.228617
v 11.713807 17.297142 -3.537470
v 11.611517 18.550972 -3.766283
v 11.399686 19.885872 -3.924440
v 12.677735 15.883278 -4.370596
v 11.707696 15.150665 -2.849245
v 12.733199 14.854003 -4.168773
v 14.300602 15.452301 -5.199568
v 14.254691 14.432426 -4.953844
v 16.181463 14.915268 -5.291353
v 16.111647 13.869774 -5.087017
v 17.771667 13.267891 -4.673340
v 17.822458 14.478066 -4.846631
v 19.196552 12.461769 -3.976521
v 19.226328 14.063133 -4.120338
v 20.434956 11.719574 -3.208485
v 20.639221 13.109084 -2.876090
v 21.429745 12.131035 -1.991119
v 21.606684 10.621429 -2.402903
v 15.858286 17.129372 5.068365
v 15.826073 15.642281 5.097898
v 14.346299 15.877823 4.676104
v 17.485249 15.363823 4.906218
v 17.597797 16.783707 4.797693
v 18.789265 14.879218 4.313293
v 18.832840 16.310232 4.005167
v 20.171217 14.107155 3.277115
v 20.079056 15.512383 2.864445
v 21.024994 14.345231 1.647530
v 21.303232 13.183189 2.193251
v 22.392521 11.650063 0.829584
v 21.784531 12.993987 0.307614
v 15.962043 18.806122 5.122904
v 16.110691 20.650604 5.235937
v 17.678808 18.564186 4.803782
v 17.895561 20.491692 4.846161
v 18.981165 18.147606 3.737869
v 19.276686 20.171608 3.617083
v 20.225842 17.426804 2.514009
v 20.527250 19.665970 2.278217
v 21.034786 16.342567 0.946501
v 21.303686 18.905144 0.500502
v 21.355442 18.071953 -1.517767
v 21.311623 15.434532 -1.144823
v 19.355114 15.793053 -4.279432
v 20.551210 15.327644 -2.990255
v 20.582397 18.147751 -3.372431
v 19.285753 18.187569 -4.761572
v 17.861603 16.187103 -5.231977
v 17.686724 18.235252 -5.652308
v 16.042816 16.510452 -5.684187
v 15.879240 18.309540 -6.060911
v 14.230447 16.815392 -5.492670
v 14.077978 18.412277 -5.838552
v 12.721738 17.091164 -4.684902
v 12.595346 18.476768 -4.970198
v 12.354036 20.001633 -5.237951
v 13.859566 20.275055 -6.248583
v 15.709187 20.296661 -6.476706
v 17.508348 20.383720 -5.997168
v 19.217810 20.540169 -5.206976
v 20.620468 20.758316 -3.842802
v 21.493793 20.949287 -2.100702
v 21.590437 21.479927 0.015966
v 20.844288 22.043312 2.056499
v 19.635963 22.385704 3.525978
v 18.080051 22.327385 4.943975
v 16.239307 22.308403 5.376705
v 15.555502 22.375885 -6.876310
v 17.387781 22.476929 -6.583624
v 19.156473 22.813499 -5.887613
v 20.625420 23.155861 -4.555178
v 21.589869 23.573654 -2.874582
v 21.842007 24.066750 -0.671423
v 21.267746 24.503952 1.556601
v 20.049959 24.781858 3.326376
v 18.313938 24.626389 5.025299
v 17.188654 24.433144 -7.146646
v 18.826099 24.951767 -6.568026
v 20.113245 25.720795 -6.045168
v 21.609936 26.230492 -3.931803
v 22.106966 26.772322 -1.557880
v 21.735695 27.205359 0.888889
v 20.548683 27.458227 3.009251
v 19.867001 28.327452 -6.780489
v 21.101242 29.316957 -5.784369
v 22.303776 29.692513 -2.609749
v 22.250845 30.255360 0.039074
v 21.358797 30.663742 2.379023
v 21.410252 40.797691 0.367973
v 21.438314 41.101524 -1.912811
v 21.854227 37.538551 0.738861
v 21.966608 37.475334 -2.244751
v 21.851141 34.062378 1.557365
v 22.404503 33.623955 -0.963821
v 21.649242 35.410561 -4.231339
v 22.148577 32.702866 -3.358894
v 21.342712 34.277649 -5.302055
v 21.397623 32.071617 -5.462837
v 12.314650 16.063530 2.081518
v 11.970086 15.875664 1.177397
v 11.601871 16.844902 1.264299
v 11.995535 16.952759 2.125658
v 11.349537 16.721161 0.187769
v 11.769783 15.763092 0.179873
v 11.591834 15.709770 -0.598375
v 11.305562 16.640663 -0.765921
v 11.504910 17.774849 1.188700
v 11.357385 18.742836 1.149887
v 11.734092 18.917336 2.181726
v 11.913510 17.839859 2.090036
v 11.206406 17.619217 0.033993
v 11.056245 18.610031 -0.017946
v 11.157329 17.557991 -0.875212
v 10.995858 18.529564 -0.980375
v 11.106325 20.481445 0.989531
v 11.475986 20.706474 2.073433
v 11.695944 19.745415 2.046963
v 11.258134 19.602036 1.101788
v 10.810360 20.326759 -0.165117
v 10.937511 19.419312 -0.083691
v 10.867359 19.360352 -1.062309
v 10.720057 20.287697 -1.171255
v 10.958250 21.301750 0.926889
v 11.295245 21.576752 2.124342
v 10.658508 21.146362 -0.295357
v 10.596600 21.110054 -1.260500
v 11.932106 23.525505 3.542292
v 12.870044 24.230377 4.486717
v 11.056297 22.910652 2.297853
v 10.458580 22.366943 -2.526789
v 10.440519 22.353912 -1.539408
v 11.393397 15.357156 -1.769362
v 13.086906 15.918320 3.745284
v 22.303780 11.209244 -0.844809
v 22.986744 10.363640 -0.081347
v 23.638313 9.130104 -1.203623
v 22.844631 9.698524 -1.726751
v 21.644238 12.967453 -0.959110
v 10.690670 21.923096 -1.380659
v 10.787596 21.934608 -0.460135
v 11.069946 22.116699 0.776119
v 11.434566 22.477280 1.913128
v 15.405931 23.462105 5.439754
v 14.065774 25.525856 5.338709
v 16.397182 28.678642 5.229269
v 17.580454 31.891750 5.027012
v 15.306119 27.065254 5.037596
v 18.398510 35.009399 4.559053
v 18.712952 37.894043 4.011002
v 18.663649 40.976494 3.310760
v 18.386427 44.997078 2.609428
v 19.288116 46.429985 0.305847
v 19.231842 46.685905 -1.552307
v 18.314238 45.927116 -3.650017
v 18.506371 42.933220 -4.810181
v 18.552294 40.832817 -5.535530
v 18.459644 38.764389 -6.314003
v 18.309742 36.179764 -7.089851
v 17.875107 33.661552 -7.628151
v 17.178638 31.346136 -7.808893
v 16.387510 29.359266 -7.726763
v 15.395830 27.369555 -7.335852
v 14.308667 25.527840 -6.681519
v 13.370888 24.102348 -5.976011
v 12.112491 23.054407 -4.653069
v 11.567782 22.723373 -3.699831
v 12.424770 15.262299 -2.512579
v 13.248455 14.997009 -3.573744
v 14.487425 14.595725 -4.206069
v 16.075190 14.025414 -4.303148
v 17.526997 13.391647 -3.921793
v 18.828032 12.538315 -3.270594
v 19.879534 11.645515 -2.637501
v 21.094006 10.404610 -1.828318
v 15.874394 15.625374 4.299538
v 14.687309 15.869292 3.952474
v 17.244850 15.332611 4.143831
v 18.319363 14.779694 3.673538
v 19.542274 13.909614 2.823895
v 20.623833 12.881621 1.897494
v 21.665390 11.319481 0.784882
v 13.085876 16.273087 2.117516
v 12.670268 16.171188 0.927576
v 12.482726 16.077316 -0.001715
v 12.236194 15.836639 -1.055218
v 12.915869 15.935234 2.285316
v 12.086969 15.545158 -1.038822
v 12.471401 23.660177 2.966944
v 13.268864 24.369789 3.807373
v 11.801188 23.050041 2.041517
v 11.242787 22.478004 -2.414164
v 11.225743 22.417671 -1.678537
v 12.176902 15.459732 -1.644468
v 13.648236 15.935059 3.175522
v 22.306561 9.959801 0.038067
v 23.026575 8.690872 -0.933718
v 22.264647 9.311539 -1.334501
v 11.299886 21.845543 -1.893339
v 11.568227 21.798332 -0.569887
v 11.838108 21.974739 0.603565
v 12.207929 22.459160 2.117041
v 14.319107 25.653740 4.590733
vt 0.154876 0.548451
vt 0.154708 0.550289
vt 0.030590 0.032898
vt 0.028280 0.032922
vt 0.164066 0.552674
vt 0.162371 0.552198
vt 0.162660 0.547264
vt 0.164413 0.546978
vt 0.350927 0.732567
vt 0.350894 0.737107
vt 0.153142 0.545508
vt 0.154324 0.546776
vt 0.026055 0.032928
vt 0.023761 0.032914
vt 0.162122 0.541663
vt 0.160764 0.542635
vt 0.157216 0.539424
vt 0.158016 0.538076
vt 0.350891 0.720445
vt 0.350925 0.724982
vt 0.149600 0.554039
vt 0.148142 0.553298
vt 0.042021 0.032650
vt 0.039721 0.032693
vt 0.143153 0.560407
vt 0.143970 0.559131
vt 0.148064 0.560845
vt 0.147760 0.562230
vt 0.147061 0.551963
vt 0.044300 0.032626
vt 0.139375 0.556908
vt 0.140698 0.555947
vt 0.350465 0.769095
vt 0.350423 0.773577
vt 0.154023 0.552007
vt 0.152798 0.553298
vt 0.035117 0.032805
vt 0.032846 0.032857
vt 0.157506 0.560838
vt 0.156732 0.559492
vt 0.160239 0.556480
vt 0.161520 0.557510
vt 0.350833 0.744747
vt 0.350746 0.749210
vt 0.146523 0.550225
vt 0.046560 0.032626
vt 0.137087 0.551830
vt 0.138824 0.551528
vt 0.151570 0.544800
vt 0.021458 0.032882
vt 0.152944 0.537835
vt 0.153170 0.536365
vt 0.149884 0.544750
vt 0.019152 0.032836
vt 0.148530 0.537877
vt 0.148259 0.536495
vt 0.350721 0.708224
vt 0.350818 0.712768
vt 0.146492 0.548386
vt 0.012287 0.032688
vt 0.137471 0.546313
vt 0.139049 0.546735
vt 0.350305 0.683923
vt 0.350369 0.688380
vt 0.147138 0.546724
vt 0.014560 0.032730
vt 0.139856 0.541617
vt 0.141086 0.542550
vt 0.151238 0.554006
vt 0.037412 0.032748
vt 0.152480 0.560964
vt 0.152692 0.562429
vt 0.350646 0.756876
vt 0.350545 0.761430
vt 0.148337 0.545451
vt 0.016850 0.032783
vt 0.143666 0.538244
vt 0.144428 0.539508
vt 0.350476 0.696024
vt 0.350597 0.700557
vt 0.147104 0.563814
vt 0.350520 0.762994
vt 0.350439 0.767525
vt 0.142496 0.561995
vt 0.137553 0.557753
vt 0.350384 0.775168
vt 0.350390 0.779619
vt 0.135157 0.552661
vt 0.153778 0.534697
vt 0.350849 0.714336
vt 0.350916 0.718882
vt 0.158623 0.536413
vt 0.135805 0.545510
vt 0.350348 0.689956
vt 0.350451 0.694448
vt 0.138190 0.540814
vt 0.164015 0.540868
vt 0.350958 0.726565
vt 0.350958 0.731071
vt 0.166414 0.546202
vt 0.143061 0.536673
vt 0.350607 0.702115
vt 0.350725 0.706661
vt 0.147654 0.534919
vt 0.158101 0.562499
vt 0.350749 0.750785
vt 0.350649 0.755305
vt 0.153287 0.564087
vt 0.165815 0.553592
vt 0.350919 0.738713
vt 0.350858 0.743142
vt 0.163271 0.558423
vt 0.156431 0.550705
vt 0.156555 0.548248
vt 0.155746 0.545949
vt 0.154070 0.544229
vt 0.147181 0.554514
vt 0.149263 0.555477
vt 0.145636 0.552765
vt 0.153729 0.554609
vt 0.155437 0.552933
vt 0.144791 0.550515
vt 0.151909 0.543293
vt 0.149587 0.543272
vt 0.144836 0.548083
vt 0.145765 0.545864
vt 0.151561 0.555502
vt 0.147433 0.544177
vt 0.160331 0.551645
vt 0.158051 0.551073
vt 0.158219 0.547987
vt 0.160489 0.547621
vt 0.158921 0.543899
vt 0.157068 0.545110
vt 0.154981 0.542916
vt 0.156147 0.541143
vt 0.145050 0.557531
vt 0.146239 0.555820
vt 0.148926 0.557047
vt 0.148490 0.558962
vt 0.142289 0.554863
vt 0.144150 0.553662
vt 0.155753 0.557765
vt 0.154630 0.555957
vt 0.156815 0.553876
vt 0.158612 0.555200
vt 0.140862 0.551159
vt 0.143153 0.550769
vt 0.152251 0.541749
vt 0.152622 0.539739
vt 0.149300 0.541682
vt 0.148922 0.539763
vt 0.141049 0.547201
vt 0.143209 0.547709
vt 0.142701 0.543695
vt 0.144434 0.544924
vt 0.151874 0.557048
vt 0.152209 0.559062
vt 0.145475 0.541111
vt 0.146575 0.542834
vt 0.105669 0.989308
vt 0.105304 0.977814
vt 0.107093 0.977724
vt 0.107458 0.989222
vt 0.108890 0.977638
vt 0.109254 0.989142
vt 0.110686 0.977561
vt 0.111048 0.989070
vt 0.083996 0.978424
vt 0.084370 0.989937
vt 0.085775 0.978367
vt 0.086147 0.989883
vt 0.087540 0.978322
vt 0.087912 0.989839
vt 0.089300 0.978287
vt 0.089672 0.989803
vt 0.091068 0.978257
vt 0.091440 0.989769
vt 0.092852 0.978230
vt 0.093224 0.989737
vt 0.094650 0.978201
vt 0.095021 0.989703
vt 0.096627 0.978165
vt 0.096627 0.989662
vt 0.098232 0.978119
vt 0.098599 0.989611
vt 0.100000 0.978060
vt 0.100365 0.989550
vt 0.101761 0.977987
vt 0.102124 0.989477
vt 0.103526 0.977904
vt 0.103890 0.989394
vt 0.014429 0.577737
vt 0.018169 0.575130
vt 0.018862 0.576783
vt 0.018877 0.578580
vt 0.082206 0.978492
vt 0.082582 0.990000
vt 0.018210 0.580247
vt 0.016965 0.581532
vt 0.015335 0.582241
vt 0.013569 0.582264
vt 0.011939 0.581599
vt 0.010690 0.580347
vt 0.010010 0.578697
vt 0.010000 0.576900
vt 0.010660 0.575229
vt 0.011891 0.573940
vt 0.013509 0.573230
vt 0.015270 0.573207
vt 0.016907 0.573874
vt 0.328191 0.737114
vt 0.328226 0.732567
vt 0.328234 0.724994
vt 0.328216 0.720463
vt 0.327840 0.769085
vt 0.327900 0.761425
vt 0.327814 0.773566
vt 0.328062 0.749215
vt 0.328136 0.744750
vt 0.327707 0.683963
vt 0.328164 0.712792
vt 0.328087 0.708252
vt 0.327773 0.688419
vt 0.327874 0.696060
vt 0.327980 0.756877
vt 0.327982 0.700589
vt 0.327876 0.762991
vt 0.327815 0.767515
vt 0.327781 0.775155
vt 0.327796 0.779608
vt 0.328191 0.714359
vt 0.328238 0.718899
vt 0.327759 0.689996
vt 0.327855 0.694485
vt 0.328259 0.726575
vt 0.328250 0.731078
vt 0.327994 0.702146
vt 0.328094 0.706691
vt 0.328061 0.750789
vt 0.327979 0.755306
vt 0.328207 0.738717
vt 0.328153 0.743148
vt 0.350428 0.781211
vt 0.327829 0.781198
vt 0.028280 0.010249
vt 0.030553 0.010224
vt 0.023729 0.010254
vt 0.026020 0.010259
vt 0.039682 0.010048
vt 0.041979 0.010016
vt 0.044254 0.010000
vt 0.032810 0.010186
vt 0.035082 0.010140
vt 0.046513 0.010005
vt 0.021428 0.010232
vt 0.019125 0.010197
vt 0.012260 0.010067
vt 0.014533 0.010107
vt 0.037376 0.010093
vt 0.016824 0.010152
vt 0.010027 0.032663
vt 0.010000 0.010042
vt 0.765383 0.291450
vt 0.749367 0.284413
vt 0.760217 0.257216
vt 0.776101 0.267083
vt 0.775200 0.238002
vt 0.784940 0.254106
vt 0.805657 0.205815
vt 0.817944 0.204386
vt 0.819233 0.211895
vt 0.807261 0.215271
vt 0.803439 0.194096
vt 0.813725 0.186134
vt 0.815468 0.193162
vt 0.801721 0.183791
vt 0.808758 0.174060
vt 0.811854 0.180106
vt 0.793504 0.220362
vt 0.791952 0.207616
vt 0.790944 0.194623
vt 0.790190 0.184145
vt 0.740729 0.307939
vt 0.756278 0.313966
vt 0.748667 0.334853
vt 0.733617 0.330056
vt 0.740843 0.355997
vt 0.727985 0.350180
vt 0.728943 0.377923
vt 0.723223 0.365494
vt 0.714062 0.384180
vt 0.712811 0.367002
vt 0.701127 0.368840
vt 0.701776 0.386125
vt 0.691268 0.370394
vt 0.687193 0.384827
vt 0.674517 0.369247
vt 0.686190 0.357791
vt 0.680514 0.341322
vt 0.666710 0.355070
vt 0.672433 0.326173
vt 0.659630 0.339998
vt 0.652538 0.320643
vt 0.665505 0.309895
vt 0.646043 0.301646
vt 0.659765 0.292129
vt 0.653841 0.274671
vt 0.639952 0.283867
vt 0.649826 0.258812
vt 0.634789 0.268067
vt 0.628907 0.251795
vt 0.640882 0.244369
vt 0.633128 0.229099
vt 0.621831 0.235419
vt 0.621694 0.213335
vt 0.614763 0.221975
vt 0.610519 0.200801
vt 0.603602 0.208657
vt 0.601234 0.194751
vt 0.596645 0.202473
vt 0.586956 0.180127
vt 0.595213 0.182628
vt 0.592743 0.190228
vt 0.584785 0.186971
vt 0.588971 0.174113
vt 0.599321 0.173348
vt 0.601899 0.165358
vt 0.590961 0.168806
vt 0.594001 0.161640
vt 0.600743 0.150012
vt 0.603580 0.158021
vt 0.597018 0.154925
vt 0.612378 0.160486
vt 0.611073 0.168345
vt 0.608619 0.176918
vt 0.605187 0.185787
vt 0.622510 0.162006
vt 0.612820 0.153376
vt 0.623854 0.155029
vt 0.635545 0.161972
vt 0.635945 0.154519
vt 0.649585 0.159576
vt 0.649620 0.151637
vt 0.662557 0.146786
vt 0.662639 0.156469
vt 0.674895 0.139843
vt 0.675214 0.152862
vt 0.686095 0.132270
vt 0.690453 0.143843
vt 0.699900 0.134526
vt 0.696790 0.121344
vt 0.779280 0.182348
vt 0.780003 0.172235
vt 0.790030 0.174062
vt 0.768954 0.168646
vt 0.766738 0.178917
vt 0.759115 0.163395
vt 0.756031 0.174145
vt 0.747102 0.155064
vt 0.743415 0.166316
vt 0.731938 0.155162
vt 0.736294 0.145263
vt 0.725188 0.130086
vt 0.720210 0.142191
vt 0.778239 0.194332
vt 0.777245 0.207857
vt 0.765345 0.192175
vt 0.763626 0.206678
vt 0.752654 0.188194
vt 0.749642 0.203741
vt 0.739148 0.181600
vt 0.735520 0.199378
vt 0.724991 0.171739
vt 0.720235 0.192882
vt 0.703967 0.185770
vt 0.707121 0.163492
vt 0.675598 0.166982
vt 0.690035 0.162819
vt 0.687578 0.186215
vt 0.672427 0.186185
vt 0.661606 0.170039
vt 0.658243 0.185758
vt 0.647317 0.171580
vt 0.644292 0.184920
vt 0.633829 0.171785
vt 0.631046 0.183291
vt 0.621566 0.170604
vt 0.619062 0.180308
vt 0.615446 0.190802
vt 0.627180 0.196678
vt 0.640591 0.199629
vt 0.654495 0.202019
vt 0.668875 0.204601
vt 0.684088 0.207040
vt 0.699335 0.208881
vt 0.715796 0.213238
vt 0.732450 0.217802
vt 0.746822 0.220540
vt 0.762642 0.220465
vt 0.776638 0.220122
vt 0.636427 0.215035
vt 0.650165 0.218063
vt 0.664183 0.222244
vt 0.679061 0.225645
vt 0.693625 0.229162
vt 0.710292 0.232975
vt 0.727501 0.236376
vt 0.743496 0.238565
vt 0.761487 0.237544
vt 0.645488 0.232768
vt 0.657941 0.238073
vt 0.667477 0.244770
vt 0.686162 0.248921
vt 0.703671 0.252978
vt 0.721580 0.256297
vt 0.739283 0.258330
vt 0.661798 0.263441
vt 0.672646 0.270800
vt 0.696124 0.273655
vt 0.714432 0.277953
vt 0.731887 0.281320
vt 0.714363 0.348944
vt 0.699580 0.350645
vt 0.717561 0.327671
vt 0.697571 0.326674
vt 0.724267 0.304578
vt 0.706852 0.300874
vt 0.683905 0.312755
vt 0.690684 0.294218
vt 0.676295 0.304934
vt 0.675461 0.289800
vt 0.026019 0.553530
vt 0.021036 0.552976
vt 0.022054 0.547946
vt 0.026873 0.548648
vt 0.016431 0.547503
vt 0.015972 0.552801
vt 0.011856 0.552437
vt 0.011501 0.547259
vt 0.022545 0.543181
vt 0.023164 0.538126
vt 0.028970 0.538432
vt 0.027655 0.544026
vt 0.016332 0.542784
vt 0.016858 0.537599
vt 0.011608 0.542374
vt 0.011827 0.537201
vt 0.023802 0.528893
vt 0.029936 0.528934
vt 0.029175 0.534042
vt 0.023677 0.533621
vt 0.017504 0.528528
vt 0.017181 0.533328
vt 0.012073 0.532791
vt 0.012259 0.527852
vt 0.024103 0.524495
vt 0.030820 0.524346
vt 0.017457 0.524127
vt 0.012472 0.523477
vt 0.811477 0.225984
vt 0.803235 0.232403
vt 0.818631 0.220058
vt 0.588578 0.196712
vt 0.584691 0.193918
vt 0.606010 0.151473
vt 0.799890 0.174162
vt 0.711559 0.125609
vt 0.719336 0.117861
vt 0.712576 0.105405
vt 0.706421 0.111576
vt 0.709213 0.141711
vt 0.582893 0.191793
vt 0.017407 0.519851
vt 0.024292 0.520004
vt 0.030940 0.519456
vt 0.783046 0.228377
vt 0.793516 0.242902
vt 0.781627 0.269570
vt 0.771031 0.293400
vt 0.789962 0.257276
vt 0.761819 0.316114
vt 0.754142 0.336840
vt 0.745721 0.358231
vt 0.732415 0.381499
vt 0.715651 0.389252
vt 0.701823 0.392172
vt 0.684444 0.389518
vt 0.669837 0.372328
vt 0.661418 0.357808
vt 0.654028 0.342334
vt 0.646639 0.322603
vt 0.640211 0.303324
vt 0.634172 0.285624
vt 0.629062 0.269959
vt 0.623107 0.253640
vt 0.616159 0.237789
vt 0.609438 0.225091
vt 0.599177 0.212629
vt 0.592893 0.206658
vt 0.613885 0.147944
vt 0.624029 0.149267
vt 0.634986 0.148690
vt 0.647723 0.145764
vt 0.659680 0.141184
vt 0.671297 0.134538
vt 0.681304 0.127676
vt 0.692228 0.116678
vt 0.781554 0.166814
vt 0.790701 0.168575
vt 0.771538 0.163203
vt 0.762673 0.158337
vt 0.751573 0.150512
vt 0.741210 0.141110
vt 0.730859 0.127062
vt 0.027334 0.557516
vt 0.020716 0.557043
vt 0.015737 0.556898
vt 0.010000 0.556175
vt 0.808158 0.169245
vt 0.602636 0.145430
vt 0.815139 0.229924
vt 0.807488 0.236492
vt 0.821845 0.223726
vt 0.585376 0.200438
vt 0.581504 0.197139
vt 0.607181 0.146307
vt 0.800031 0.169029
vt 0.725073 0.115077
vt 0.718405 0.103014
vt 0.701716 0.107441
vt 0.578021 0.194583
vt 0.017774 0.515662
vt 0.024166 0.515729
vt 0.032808 0.515652
vt 0.798102 0.246611
vt 0.811081 0.173039
vt 0.813381 0.178897
vt 0.598989 0.148873
vt 0.595557 0.154646
vt 0.816583 0.192508
vt 0.815304 0.184634
vt 0.592503 0.160744
vt 0.589556 0.167551
vt 0.819930 0.205312
vt 0.818833 0.198245
vt 0.587217 0.173470
vt 0.585123 0.180234
vt 0.820544 0.211755
vt 0.583601 0.186185
vt 0.012582 0.519183
vt 0.822355 0.218383
vt 0.810400 0.167162
vt 0.601260 0.143454
vt 0.010721 0.515442
vt 0.827232 0.222218
vt 0.707602 0.101461
vt 0.028280 0.010249
vt 0.030553 0.010224
vt 0.030590 0.032898
vt 0.028280 0.032922
vt 0.164066 0.552674
vt 0.162371 0.552198
vt 0.162660 0.547264
vt 0.164413 0.546978
vt 0.328226 0.732567
vt 0.350927 0.732567
vt 0.350894 0.737107
vt 0.328191 0.737114
vt 0.023729 0.010254
vt 0.026020 0.010259
vt 0.026055 0.032928
vt 0.023761 0.032914
vt 0.162122 0.541663
vt 0.160764 0.542635
vt 0.157216 0.539424
vt 0.158016 0.538076
vt 0.328216 0.720463
vt 0.350891 0.720445
vt 0.350925 0.724982
vt 0.328234 0.724994
vt 0.039682 0.010048
vt 0.041979 0.010016
vt 0.042021 0.032650
vt 0.039721 0.032693
vt 0.143153 0.560407
vt 0.143970 0.559131
vt 0.148064 0.560845
vt 0.147760 0.562230
vt 0.044254 0.010000
vt 0.044300 0.032626
vt 0.139375 0.556908
vt 0.140698 0.555947
vt 0.327840 0.769085
vt 0.350465 0.769095
vt 0.350423 0.773577
vt 0.327814 0.773566
vt 0.032810 0.010186
vt 0.035082 0.010140
vt 0.035117 0.032805
vt 0.032846 0.032857
vt 0.157506 0.560838
vt 0.156732 0.559492
vt 0.160239 0.556480
vt 0.161520 0.557510
vt 0.328136 0.744750
vt 0.350833 0.744747
vt 0.350746 0.749210
vt 0.328062 0.749215
vt 0.046513 0.010005
vt 0.046560 0.032626
vt 0.137087 0.551830
vt 0.138824 0.551528
vt 0.021428 0.010232
vt 0.021458 0.032882
vt 0.152944 0.537835
vt 0.153170 0.536365
vt 0.019125 0.010197
vt 0.019152 0.032836
vt 0.148530 0.537877
vt 0.148259 0.536495
vt 0.328087 0.708252
vt 0.350721 0.708224
vt 0.350818 0.712768
vt 0.328164 0.712792
vt 0.010000 0.010042
vt 0.012260 0.010067
vt 0.012287 0.032688
vt 0.010027 0.032663
vt 0.137471 0.546313
vt 0.139049 0.546735
vt 0.327707 0.683963
vt 0.350305 0.683923
vt 0.350369 0.688380
vt 0.327773 0.688419
vt 0.014533 0.010107
vt 0.014560 0.032730
vt 0.139856 0.541617
vt 0.141086 0.542550
vt 0.037376 0.010093
vt 0.037412 0.032748
vt 0.152480 0.560964
vt 0.152692 0.562429
vt 0.327980 0.756877
vt 0.350646 0.756876
vt 0.350545 0.761430
vt 0.327900 0.761425
vt 0.016824 0.010152
vt 0.016850 0.032783
vt 0.143666 0.538244
vt 0.144428 0.539508
vt 0.327874 0.696060
vt 0.350476 0.696024
vt 0.350597 0.700557
vt 0.327982 0.700589
vt 0.327876 0.762991
vt 0.350520 0.762994
vt 0.350439 0.767525
vt 0.327815 0.767515
vt 0.147104 0.563814
vt 0.142496 0.561995
vt 0.327781 0.775155
vt 0.350384 0.775168
vt 0.350390 0.779619
vt 0.327796 0.779608
vt 0.137553 0.557753
vt 0.135157 0.552661
vt 0.350428 0.781211
vt 0.327829 0.781198
vt 0.328191 0.714359
vt 0.350849 0.714336
vt 0.350916 0.718882
vt 0.328238 0.718899
vt 0.153778 0.534697
vt 0.158623 0.536413
vt 0.327759 0.689996
vt 0.350348 0.689956
vt 0.350451 0.694448
vt 0.327855 0.694485
vt 0.135805 0.545510
vt 0.138190 0.540814
vt 0.328259 0.726575
vt 0.350958 0.726565
vt 0.350958 0.731071
vt 0.328250 0.731078
vt 0.164015 0.540868
vt 0.166414 0.546202
vt 0.327994 0.702146
vt 0.350607 0.702115
vt 0.350725 0.706661
vt 0.328094 0.706691
vt 0.143061 0.536673
vt 0.147654 0.534919
vt 0.328061 0.750789
vt 0.350749 0.750785
vt 0.350649 0.755305
vt 0.327979 0.755306
vt 0.158101 0.562499
vt 0.153287 0.564087
vt 0.328207 0.738717
vt 0.350919 0.738713
vt 0.350858 0.743142
vt 0.328153 0.743148
vt 0.165815 0.553592
vt 0.163271 0.558423
vt 0.156431 0.550705
vt 0.154708 0.550289
vt 0.154876 0.548451
vt 0.156555 0.548248
vt 0.155746 0.545949
vt 0.154324 0.546776
vt 0.153142 0.545508
vt 0.154070 0.544229
vt 0.147181 0.554514
vt 0.148142 0.553298
vt 0.149600 0.554039
vt 0.149263 0.555477
vt 0.145636 0.552765
vt 0.147061 0.551963
vt 0.153729 0.554609
vt 0.152798 0.553298
vt 0.154023 0.552007
vt 0.155437 0.552933
vt 0.144791 0.550515
vt 0.146523 0.550225
vt 0.151570 0.544800
vt 0.151909 0.543293
vt 0.149884 0.544750
vt 0.149587 0.543272
vt 0.144836 0.548083
vt 0.146492 0.548386
vt 0.145765 0.545864
vt 0.147138 0.546724
vt 0.151238 0.554006
vt 0.151561 0.555502
vt 0.147433 0.544177
vt 0.148337 0.545451
vt 0.160331 0.551645
vt 0.158051 0.551073
vt 0.158219 0.547987
vt 0.160489 0.547621
vt 0.158921 0.543899
vt 0.157068 0.545110
vt 0.154981 0.542916
vt 0.156147 0.541143
vt 0.145050 0.557531
vt 0.146239 0.555820
vt 0.148926 0.557047
vt 0.148490 0.558962
vt 0.142289 0.554863
vt 0.144150 0.553662
vt 0.155753 0.557765
vt 0.154630 0.555957
vt 0.156815 0.553876
vt 0.158612 0.555200
vt 0.140862 0.551159
vt 0.143153 0.550769
vt 0.152251 0.541749
vt 0.152622 0.539739
vt 0.149300 0.541682
vt 0.148922 0.539763
vt 0.141049 0.547201
vt 0.143209 0.547709
vt 0.142701 0.543695
vt 0.144434 0.544924
vt 0.151874 0.557048
vt 0.152209 0.559062
vt 0.145475 0.541111
vt 0.146575 0.542834
vt 0.105669 0.989308
vt 0.105304 0.977814
vt 0.107093 0.977724
vt 0.107458 0.989222
vt 0.108890 0.977638
vt 0.109254 0.989142
vt 0.110686 0.977561
vt 0.111048 0.989070
vt 0.082582 0.990000
vt 0.082206 0.978492
vt 0.083996 0.978424
vt 0.084370 0.989937
vt 0.085775 0.978367
vt 0.086147 0.989883
vt 0.087540 0.978322
vt 0.087912 0.989839
vt 0.089300 0.978287
vt 0.089672 0.989803
vt 0.091068 0.978257
vt 0.091440 0.989769
vt 0.092852 0.978230
vt 0.093224 0.989737
vt 0.094650 0.978201
vt 0.095021 0.989703
vt 0.096627 0.978165
vt 0.096627 0.989662
vt 0.098232 0.978119
vt 0.098599 0.989611
vt 0.100000 0.978060
vt 0.100365 0.989550
vt 0.101761 0.977987
vt 0.102124 0.989477
vt 0.103526 0.977904
vt 0.103890 0.989394
vt 0.018862 0.576783
vt 0.014429 0.577737
vt 0.018169 0.575130
vt 0.018877 0.578580
vt 0.018210 0.580247
vt 0.016965 0.581532
vt 0.015335 0.582241
vt 0.013569 0.582264
vt 0.011939 0.581599
vt 0.010690 0.580347
vt 0.010010 0.578697
vt 0.010000 0.576900
vt 0.010660 0.575229
vt 0.011891 0.573940
vt 0.013509 0.573230
vt 0.015270 0.573207
vt 0.016907 0.573874
vt 0.765383 0.291450
vt 0.749367 0.284413
vt 0.760217 0.257216
vt 0.776101 0.267083
vt 0.775200 0.238002
vt 0.784940 0.254106
vt 0.805657 0.205815
vt 0.817944 0.204386
vt 0.819233 0.211895
vt 0.807261 0.215271
vt 0.803439 0.194096
vt 0.813725 0.186134
vt 0.815468 0.193162
vt 0.801721 0.183791
vt 0.808758 0.174060
vt 0.811854 0.180106
vt 0.793504 0.220362
vt 0.791952 0.207616
vt 0.790944 0.194623
vt 0.790190 0.184145
vt 0.740729 0.307939
vt 0.756278 0.313966
vt 0.748667 0.334853
vt 0.733617 0.330056
vt 0.740843 0.355997
vt 0.727985 0.350180
vt 0.728943 0.377923
vt 0.723223 0.365494
vt 0.714062 0.384180
vt 0.712811 0.367002
vt 0.701127 0.368840
vt 0.701776 0.386125
vt 0.691268 0.370394
vt 0.687193 0.384827
vt 0.674517 0.369247
vt 0.686190 0.357791
vt 0.680514 0.341322
vt 0.666710 0.355070
vt 0.672433 0.326173
vt 0.659630 0.339998
vt 0.652538 0.320643
vt 0.665505 0.309895
vt 0.646043 0.301646
vt 0.659765 0.292129
vt 0.653841 0.274671
vt 0.639952 0.283867
vt 0.649826 0.258812
vt 0.634789 0.268067
vt 0.628907 0.251795
vt 0.640882 0.244369
vt 0.633128 0.229099
vt 0.621831 0.235419
vt 0.621694 0.213335
vt 0.614763 0.221975
vt 0.610519 0.200801
vt 0.603602 0.208657
vt 0.601234 0.194751
vt 0.596645 0.202473
vt 0.586956 0.180127
vt 0.595213 0.182628
vt 0.592743 0.190228
vt 0.584785 0.186971
vt 0.588971 0.174113
vt 0.599321 0.173348
vt 0.601899 0.165358
vt 0.590961 0.168806
vt 0.594001 0.161640
vt 0.600743 0.150012
vt 0.603580 0.158021
vt 0.597018 0.154925
vt 0.612378 0.160486
vt 0.611073 0.168345
vt 0.608619 0.176918
vt 0.605187 0.185787
vt 0.622510 0.162006
vt 0.612820 0.153376
vt 0.623854 0.155029
vt 0.635545 0.161972
vt 0.635945 0.154519
vt 0.649585 0.159576
vt 0.649620 0.151637
vt 0.662557 0.146786
vt 0.662639 0.156469
vt 0.674895 0.139843
vt 0.675214 0.152862
vt 0.686095 0.132270
vt 0.690453 0.143843
vt 0.699900 0.134526
vt 0.696790 0.121344
vt 0.779280 0.182348
vt 0.780003 0.172235
vt 0.790030 0.174062
vt 0.768954 0.168646
vt 0.766738 0.178917
vt 0.759115 0.163395
vt 0.756031 0.174145
vt 0.747102 0.155064
vt 0.743415 0.166316
vt 0.731938 0.155162
vt 0.736294 0.145263
vt 0.725188 0.130086
vt 0.720210 0.142191
vt 0.778239 0.194332
vt 0.777245 0.207857
vt 0.765345 0.192175
vt 0.763626 0.206678
vt 0.752654 0.188194
vt 0.749642 0.203741
vt 0.739148 0.181600
vt 0.735520 0.199378
vt 0.724991 0.171739
vt 0.720235 0.192882
vt 0.703967 0.185770
vt 0.707121 0.163492
vt 0.675598 0.166982
vt 0.690035 0.162819
vt 0.687578 0.186215
vt 0.672427 0.186185
vt 0.661606 0.170039
vt 0.658243 0.185758
vt 0.647317 0.171580
vt 0.644292 0.184920
vt 0.633829 0.171785
vt 0.631046 0.183291
vt 0.621566 0.170604
vt 0.619062 0.180308
vt 0.615446 0.190802
vt 0.627180 0.196678
vt 0.640591 0.199629
vt 0.654495 0.202019
vt 0.668875 0.204601
vt 0.684088 0.207040
vt 0.699335 0.208881
vt 0.715796 0.213238
vt 0.732450 0.217802
vt 0.746822 0.220540
vt 0.762642 0.220465
vt 0.776638 0.220122
vt 0.636427 0.215035
vt 0.650165 0.218063
vt 0.664183 0.222244
vt 0.679061 0.225645
vt 0.693625 0.229162
vt 0.710292 0.232975
vt 0.727501 0.236376
vt 0.743496 0.238565
vt 0.761487 0.237544
vt 0.645488 0.232768
vt 0.657941 0.238073
vt 0.667477 0.244770
vt 0.686162 0.248921
vt 0.703671 0.252978
vt 0.721580 0.256297
vt 0.739283 0.258330
vt 0.661798 0.263441
vt 0.672646 0.270800
vt 0.696124 0.273655
vt 0.714432 0.277953
vt 0.731887 0.281320
vt 0.714363 0.348944
vt 0.699580 0.350645
vt 0.717561 0.327671
vt 0.697571 0.326674
vt 0.724267 0.304578
vt 0.706852 0.300874
vt 0.683905 0.312755
vt 0.690684 0.294218
vt 0.676295 0.304934
vt 0.675461 0.289800
vt 0.026019 0.553530
vt 0.021036 0.552976
vt 0.022054 0.547946
vt 0.026873 0.548648
vt 0.016431 0.547503
vt 0.015972 0.552801
vt 0.011856 0.552437
vt 0.011501 0.547259
vt 0.022545 0.543181
vt 0.023164 0.538126
vt 0.028970 0.538432
vt 0.027655 0.544026
vt 0.016332 0.542784
vt 0.016858 0.537599
vt 0.011608 0.542374
vt 0.011827 0.537201
vt 0.023802 0.528893
vt 0.029936 0.528934
vt 0.029175 0.534042
vt 0.023677 0.533621
vt 0.017504 0.528528
vt 0.017181 0.533328
vt 0.012073 0.532791
vt 0.012259 0.527852
vt 0.024103 0.524495
vt 0.030820 0.524346
vt 0.017457 0.524127
vt 0.012472 0.523477
vt 0.819930 0.205312
vt 0.820544 0.211755
vt 0.815304 0.184634
vt 0.816583 0.192508
vt 0.811081 0.173039
vt 0.813381 0.178897
vt 0.818833 0.198245
vt 0.585123 0.180234
vt 0.583601 0.186185
vt 0.587217 0.173470
vt 0.589556 0.167551
vt 0.592503 0.160744
vt 0.598989 0.148873
vt 0.595557 0.154646
vt 0.811477 0.225984
vt 0.803235 0.232403
vt 0.818631 0.220058
vt 0.588578 0.196712
vt 0.584691 0.193918
vt 0.606010 0.151473
vt 0.799890 0.174162
vt 0.711559 0.125609
vt 0.719336 0.117861
vt 0.712576 0.105405
vt 0.706421 0.111576
vt 0.709213 0.141711
vt 0.582893 0.191793
vt 0.012582 0.519183
vt 0.017407 0.519851
vt 0.024292 0.520004
vt 0.030940 0.519456
vt 0.822355 0.218383
vt 0.783046 0.228377
vt 0.793516 0.242902
vt 0.781627 0.269570
vt 0.771031 0.293400
vt 0.789962 0.257276
vt 0.761819 0.316114
vt 0.754142 0.336840
vt 0.745721 0.358231
vt 0.732415 0.381499
vt 0.715651 0.389252
vt 0.701823 0.392172
vt 0.684444 0.389518
vt 0.669837 0.372328
vt 0.661418 0.357808
vt 0.654028 0.342334
vt 0.646639 0.322603
vt 0.640211 0.303324
vt 0.634172 0.285624
vt 0.629062 0.269959
vt 0.623107 0.253640
vt 0.616159 0.237789
vt 0.609438 0.225091
vt 0.599177 0.212629
vt 0.592893 0.206658
vt 0.613885 0.147944
vt 0.624029 0.149267
vt 0.634986 0.148690
vt 0.647723 0.145764
vt 0.659680 0.141184
vt 0.671297 0.134538
vt 0.681304 0.127676
vt 0.692228 0.116678
vt 0.781554 0.166814
vt 0.790701 0.168575
vt 0.771538 0.163203
vt 0.762673 0.158337
vt 0.751573 0.150512
vt 0.741210 0.141110
vt 0.730859 0.127062
vt 0.027334 0.557516
vt 0.020716 0.557043
vt 0.015737 0.556898
vt 0.010000 0.556175
vt 0.808158 0.169245
vt 0.810400 0.167162
vt 0.601260 0.143454
vt 0.602636 0.145430
vt 0.815139 0.229924
vt 0.807488 0.236492
vt 0.821845 0.223726
vt 0.585376 0.200438
vt 0.581504 0.197139
vt 0.607181 0.146307
vt 0.800031 0.169029
vt 0.725073 0.115077
vt 0.718405 0.103014
vt 0.701716 0.107441
vt 0.707602 0.101461
vt 0.578021 0.194583
vt 0.010721 0.515442
vt 0.017774 0.515662
vt 0.024166 0.515729
vt 0.032808 0.515652
vt 0.827232 0.222218
vt 0.798102 0.246611
f 4/247 3/3 1/246
f 1/246 3/3 2/4
f 5/5 8/6 6/8
f 6/8 8/6 7/7
f 10/9 9/10 6/213
f 6/213 9/10 5/212
f 11/248 14/249 12/14
f 12/14 14/249 13/13
f 15/15 18/16 16/18
f 16/18 18/16 17/17
f 16/215 20/19 15/214
f 15/214 20/19 19/20
f 24/251 23/23 21/250
f 21/250 23/23 22/24
f 25/25 28/26 26/28
f 26/28 28/26 27/27
f 30/252 29/30 24/251
f 24/251 29/30 23/23
f 31/31 32/32 25/25
f 25/25 32/32 28/26
f 34/33 33/34 25/216
f 25/216 33/34 31/218
f 38/254 37/37 35/253
f 35/253 37/37 36/38
f 42/40 41/41 39/39
f 39/39 41/41 40/42
f 44/43 43/44 40/220
f 40/220 43/44 39/219
f 30/252 46/255 29/30
f 29/30 46/255 45/46
f 47/47 48/48 31/31
f 31/31 48/48 32/32
f 49/256 11/248 50/50
f 50/50 11/248 12/14
f 16/18 17/17 51/52
f 51/52 17/17 52/51
f 53/257 49/256 54/54
f 54/54 49/256 50/50
f 51/52 52/51 55/56
f 55/56 52/51 56/55
f 55/223 58/57 51/222
f 51/222 58/57 57/58
f 46/263 60/258 45/262
f 45/262 60/258 59/60
f 62/62 48/48 61/61
f 61/61 48/48 47/47
f 47/221 64/63 61/224
f 61/224 64/63 63/64
f 60/258 66/259 59/60
f 59/60 66/259 65/66
f 68/68 62/62 67/67
f 67/67 62/62 61/61
f 21/250 22/24 69/260
f 69/260 22/24 70/70
f 27/27 72/71 26/28
f 26/28 72/71 71/72
f 74/73 73/74 71/226
f 71/226 73/74 26/217
f 14/249 1/246 13/13
f 13/13 1/246 2/4
f 6/8 7/7 15/15
f 15/15 7/7 18/16
f 66/259 76/261 65/66
f 65/66 76/261 75/76
f 78/78 68/68 77/77
f 77/77 68/68 67/67
f 67/225 80/79 77/227
f 77/227 80/79 79/80
f 76/261 53/257 75/76
f 75/76 53/257 54/54
f 56/55 78/78 55/56
f 55/56 78/78 77/77
f 69/260 70/70 38/254
f 38/254 70/70 37/37
f 72/71 42/40 71/72
f 71/72 42/40 39/39
f 35/253 36/38 4/247
f 4/247 36/38 3/3
f 41/41 8/6 40/42
f 40/42 8/6 5/5
f 84/82 83/83 81/228
f 81/228 83/83 82/229
f 26/28 81/81 25/25
f 25/25 81/81 82/84
f 34/33 25/216 83/83
f 83/83 25/216 82/229
f 73/74 84/82 26/217
f 26/217 84/82 81/228
f 85/230 88/86 86/231
f 86/231 88/86 87/87
f 31/31 85/85 47/47
f 47/47 85/85 86/88
f 64/244 47/245 87/87
f 87/87 47/245 86/231
f 33/34 88/86 31/218
f 31/218 88/86 85/230
f 89/232 92/90 90/233
f 90/233 92/90 91/91
f 51/52 89/89 16/18
f 16/18 89/89 90/92
f 16/215 90/233 20/19
f 20/19 90/233 91/91
f 51/222 57/58 89/232
f 89/232 57/58 92/90
f 93/234 96/94 94/235
f 94/235 96/94 95/95
f 67/67 61/61 94/96
f 94/96 61/61 93/93
f 80/79 67/225 95/95
f 95/95 67/225 94/235
f 63/64 96/94 61/224
f 61/224 96/94 93/234
f 100/98 99/99 97/236
f 97/236 99/99 98/237
f 15/15 97/97 6/8
f 6/8 97/97 98/100
f 6/213 98/237 10/9
f 10/9 98/237 99/99
f 15/214 19/20 97/236
f 97/236 19/20 100/98
f 101/238 104/102 102/239
f 102/239 104/102 103/103
f 55/56 77/77 102/104
f 102/104 77/77 101/101
f 55/223 102/239 58/57
f 58/57 102/239 103/103
f 77/227 79/80 101/238
f 101/238 79/80 104/102
f 108/106 107/107 105/240
f 105/240 107/107 106/241
f 71/72 39/39 106/108
f 106/108 39/39 105/105
f 74/73 71/226 107/107
f 107/107 71/226 106/241
f 39/219 43/44 105/240
f 105/240 43/44 108/106
f 112/110 111/111 109/242
f 109/242 111/111 110/243
f 40/42 5/5 110/112
f 110/112 5/5 109/109
f 40/220 110/243 44/43
f 44/43 110/243 111/111
f 5/212 9/10 109/242
f 109/242 9/10 112/110
f 113/113 4/2 114/114
f 114/114 4/2 1/1
f 115/115 14/12 116/116
f 116/116 14/12 11/11
f 117/117 24/22 118/118
f 118/118 24/22 21/21
f 119/119 30/29 117/117
f 117/117 30/29 24/22
f 38/36 35/35 120/120
f 120/120 35/35 121/121
f 122/122 46/45 119/119
f 119/119 46/45 30/29
f 116/116 11/11 123/123
f 123/123 11/11 49/49
f 123/123 49/49 124/124
f 124/124 49/49 53/53
f 60/59 46/45 125/125
f 125/125 46/45 122/122
f 66/65 60/59 126/126
f 126/126 60/59 125/125
f 21/21 69/69 118/118
f 118/118 69/69 127/127
f 114/114 1/1 115/115
f 115/115 1/1 14/12
f 76/75 66/65 128/128
f 128/128 66/65 126/126
f 53/53 76/75 124/124
f 124/124 76/75 128/128
f 69/69 38/36 127/127
f 127/127 38/36 120/120
f 35/35 4/2 121/121
f 121/121 4/2 113/113
f 129/129 132/130 130/132
f 130/132 132/130 131/131
f 8/6 129/129 7/7
f 7/7 129/129 130/132
f 113/113 114/114 132/130
f 132/130 114/114 131/131
f 133/133 136/134 134/136
f 134/136 136/134 135/135
f 17/17 18/16 134/136
f 134/136 18/16 133/133
f 116/116 135/135 115/115
f 115/115 135/135 136/134
f 137/137 140/138 138/140
f 138/140 140/138 139/139
f 28/26 137/137 27/27
f 27/27 137/137 138/140
f 117/117 118/118 140/138
f 140/138 118/118 139/139
f 141/141 142/142 137/137
f 137/137 142/142 140/138
f 32/32 141/141 28/26
f 28/26 141/141 137/137
f 119/119 117/117 142/142
f 142/142 117/117 140/138
f 146/144 145/145 143/143
f 143/143 145/145 144/146
f 42/40 143/143 41/41
f 41/41 143/143 144/146
f 120/120 121/121 146/144
f 146/144 121/121 145/145
f 147/147 148/148 141/141
f 141/141 148/148 142/142
f 32/32 48/48 141/141
f 141/141 48/48 147/147
f 119/119 142/142 122/122
f 122/122 142/142 148/148
f 134/136 135/135 149/150
f 149/150 135/135 150/149
f 52/51 17/17 149/150
f 149/150 17/17 134/136
f 123/123 150/149 116/116
f 116/116 150/149 135/135
f 149/150 150/149 151/152
f 151/152 150/149 152/151
f 56/55 52/51 151/152
f 151/152 52/51 149/150
f 124/124 152/151 123/123
f 123/123 152/151 150/149
f 154/154 148/148 153/153
f 153/153 148/148 147/147
f 48/48 62/62 147/147
f 147/147 62/62 153/153
f 122/122 148/148 125/125
f 125/125 148/148 154/154
f 156/156 154/154 155/155
f 155/155 154/154 153/153
f 62/62 68/68 153/153
f 153/153 68/68 155/155
f 125/125 154/154 126/126
f 126/126 154/154 156/156
f 139/139 158/157 138/140
f 138/140 158/157 157/158
f 27/27 138/140 72/71
f 72/71 138/140 157/158
f 118/118 127/127 139/139
f 139/139 127/127 158/157
f 130/132 131/131 133/133
f 133/133 131/131 136/134
f 7/7 130/132 18/16
f 18/16 130/132 133/133
f 114/114 115/115 131/131
f 131/131 115/115 136/134
f 160/160 156/156 159/159
f 159/159 156/156 155/155
f 68/68 78/78 155/155
f 155/155 78/78 159/159
f 126/126 156/156 128/128
f 128/128 156/156 160/160
f 152/151 160/160 151/152
f 151/152 160/160 159/159
f 78/78 56/55 159/159
f 159/159 56/55 151/152
f 128/128 160/160 124/124
f 124/124 160/160 152/151
f 158/157 146/144 157/158
f 157/158 146/144 143/143
f 72/71 157/158 42/40
f 42/40 157/158 143/143
f 127/127 120/120 158/157
f 158/157 120/120 146/144
f 145/145 132/130 144/146
f 144/146 132/130 129/129
f 41/41 144/146 8/6
f 8/6 144/146 129/129
f 121/121 113/113 145/145
f 145/145 113/113 132/130
f 163/163 162/164 164/162
f 164/162 162/164 161/161
f 166/165 165/166 163/163
f 163/163 165/166 162/164
f 168/167 167/168 166/165
f 166/165 167/168 165/166
f 170/169 169/170 168/197
f 168/197 169/170 167/198
f 170/169 172/171 169/170
f 169/170 172/171 171/172
f 172/171 174/173 171/172
f 171/172 174/173 173/174
f 174/173 176/175 173/174
f 173/174 176/175 175/176
f 176/175 178/177 175/176
f 175/176 178/177 177/178
f 178/177 180/179 177/178
f 177/178 180/179 179/180
f 180/179 182/181 179/180
f 179/180 182/181 181/182
f 182/181 184/183 181/182
f 181/182 184/183 183/184
f 184/183 186/185 183/184
f 183/184 186/185 185/186
f 188/187 187/188 186/185
f 186/185 187/188 185/186
f 190/189 189/190 188/187
f 188/187 189/190 187/188
f 192/191 191/192 190/189
f 190/189 191/192 189/190
f 164/162 161/161 192/191
f 192/191 161/161 191/192
f 162/195 193/193 161/194
f 165/196 193/193 162/195
f 167/199 193/193 165/196
f 169/200 193/193 167/199
f 171/201 193/193 169/200
f 173/202 193/193 171/201
f 175/203 193/193 173/202
f 177/204 193/193 175/203
f 179/205 193/193 177/204
f 181/206 193/193 179/205
f 183/207 193/193 181/206
f 185/208 193/193 183/207
f 187/209 193/193 185/208
f 189/210 193/193 187/209
f 191/211 193/193 189/210
f 161/194 193/193 191/211
f 194/264 197/265 195/267
f 195/267 197/265 196/266
f 198/268 199/269 196/266
f 196/266 199/269 195/267
f 205/271 400/272 204/270
f 204/270 400/272 202/273
f 206/274 207/275 406/276
f 208/277 209/278 394/279
f 200/280 212/281 202/273
f 202/273 212/281 204/270
f 204/270 212/281 206/274
f 206/274 212/281 213/282
f 210/283 208/277 213/282
f 213/282 208/277 206/274
f 197/265 194/264 215/284
f 215/284 194/264 214/285
f 216/286 217/287 214/285
f 214/285 217/287 215/284
f 218/288 219/289 216/286
f 216/286 219/289 217/287
f 220/290 221/291 218/288
f 218/288 221/291 219/289
f 221/291 220/290 223/293
f 223/293 220/290 222/292
f 223/293 222/292 225/294
f 225/294 222/292 224/295
f 225/294 224/295 227/296
f 227/296 224/295 226/297
f 229/299 227/296 228/298
f 228/298 227/296 226/297
f 231/300 229/299 230/301
f 230/301 229/299 228/298
f 233/302 231/300 232/303
f 232/303 231/300 230/301
f 235/305 233/302 234/304
f 234/304 233/302 232/303
f 237/307 235/305 236/306
f 236/306 235/305 234/304
f 239/308 237/307 238/309
f 238/309 237/307 236/306
f 241/310 239/308 240/311
f 240/311 239/308 238/309
f 243/313 241/310 242/312
f 242/312 241/310 240/311
f 245/314 243/313 244/315
f 244/315 243/313 242/312
f 247/316 245/314 246/317
f 246/317 245/314 244/315
f 249/318 247/316 248/319
f 248/319 247/316 246/317
f 251/320 249/318 250/321
f 250/321 249/318 248/319
f 254/322 255/323 395/325
f 395/325 255/323 253/324
f 257/327 255/323 256/326
f 256/326 255/323 254/322
f 257/327 401/329 259/328
f 259/328 401/329 258/330
f 260/331 261/332 389/333
f 261/332 263/334 259/328
f 259/328 263/334 264/335
f 259/328 264/335 257/327
f 257/327 264/335 265/336
f 255/323 257/327 266/337
f 266/337 257/327 265/336
f 255/323 266/337 253/324
f 253/324 266/337 251/320
f 268/338 263/334 267/340
f 267/340 263/334 262/339
f 268/338 267/340 270/341
f 270/341 267/340 269/342
f 270/341 269/342 272/343
f 272/343 269/342 271/344
f 273/345 274/346 271/344
f 271/344 274/346 272/343
f 275/347 276/348 273/345
f 273/345 276/348 274/346
f 277/349 278/350 275/347
f 275/347 278/350 276/348
f 278/350 277/349 280/351
f 280/351 277/349 279/352
f 284/354 211/355 283/353
f 283/353 211/355 210/283
f 286/356 284/354 285/357
f 285/357 284/354 283/353
f 288/358 286/356 287/359
f 287/359 286/356 285/357
f 290/360 288/358 289/361
f 289/361 288/358 287/359
f 289/361 291/362 290/360
f 290/360 291/362 292/363
f 294/364 292/363 293/365
f 293/365 292/363 291/362
f 283/353 210/283 295/366
f 295/366 210/283 213/282
f 295/366 213/282 296/367
f 296/367 213/282 212/281
f 295/366 297/368 283/353
f 283/353 297/368 285/357
f 297/368 295/366 298/369
f 298/369 295/366 296/367
f 297/368 299/370 285/357
f 285/357 299/370 287/359
f 299/370 297/368 300/371
f 300/371 297/368 298/369
f 299/370 301/372 287/359
f 287/359 301/372 289/361
f 301/372 299/370 302/373
f 302/373 299/370 300/371
f 301/372 303/374 289/361
f 289/361 303/374 291/362
f 303/374 301/372 304/375
f 304/375 301/372 302/373
f 304/375 306/376 303/374
f 303/374 306/376 305/377
f 309/378 276/348 307/379
f 307/379 276/348 278/350
f 307/379 308/380 309/378
f 309/378 308/380 310/381
f 276/348 309/378 274/346
f 274/346 309/378 311/382
f 309/378 310/381 311/382
f 311/382 310/381 312/383
f 274/346 311/382 272/343
f 272/343 311/382 313/384
f 314/385 313/384 312/383
f 312/383 313/384 311/382
f 272/343 313/384 270/341
f 270/341 313/384 315/386
f 316/387 315/386 314/385
f 314/385 315/386 313/384
f 270/341 315/386 268/338
f 268/338 315/386 317/388
f 318/389 317/388 316/387
f 316/387 317/388 315/386
f 317/388 264/335 268/338
f 268/338 264/335 263/334
f 318/389 265/336 317/388
f 317/388 265/336 264/335
f 265/336 318/389 266/337
f 266/337 318/389 319/390
f 320/391 319/390 316/387
f 316/387 319/390 318/389
f 320/391 316/387 321/392
f 321/392 316/387 314/385
f 321/392 314/385 322/393
f 322/393 314/385 312/383
f 322/393 312/383 323/394
f 323/394 312/383 310/381
f 323/394 310/381 324/395
f 324/395 310/381 308/380
f 324/395 308/380 325/396
f 325/396 308/380 306/376
f 326/397 325/396 304/375
f 304/375 325/396 306/376
f 327/398 326/397 302/373
f 302/373 326/397 304/375
f 328/399 327/398 300/371
f 300/371 327/398 302/373
f 328/399 300/371 329/400
f 329/400 300/371 298/369
f 329/400 298/369 330/401
f 330/401 298/369 296/367
f 296/367 212/281 330/401
f 330/401 212/281 200/280
f 266/337 319/390 251/320
f 251/320 319/390 249/318
f 319/390 320/391 249/318
f 249/318 320/391 247/316
f 247/316 320/391 331/402
f 331/402 320/391 321/392
f 331/402 321/392 332/403
f 332/403 321/392 322/393
f 332/403 322/393 333/404
f 333/404 322/393 323/394
f 333/404 323/394 334/405
f 334/405 323/394 324/395
f 334/405 324/395 335/406
f 335/406 324/395 325/396
f 335/406 325/396 336/407
f 336/407 325/396 326/397
f 327/398 337/408 326/397
f 326/397 337/408 336/407
f 328/399 338/409 327/398
f 327/398 338/409 337/408
f 329/400 339/410 328/399
f 328/399 339/410 338/409
f 330/401 198/268 329/400
f 329/400 198/268 339/410
f 339/410 198/268 196/266
f 245/314 247/316 331/402
f 245/314 331/402 340/411
f 340/411 331/402 332/403
f 341/412 340/411 333/404
f 333/404 340/411 332/403
f 341/412 333/404 342/413
f 342/413 333/404 334/405
f 342/413 334/405 343/414
f 343/414 334/405 335/406
f 343/414 335/406 344/415
f 344/415 335/406 336/407
f 337/408 345/416 336/407
f 336/407 345/416 344/415
f 345/416 337/408 346/417
f 346/417 337/408 338/409
f 346/417 338/409 196/266
f 196/266 338/409 339/410
f 243/313 245/314 340/411
f 340/411 341/412 243/313
f 243/313 341/412 241/310
f 347/418 241/310 342/413
f 342/413 241/310 341/412
f 347/418 342/413 348/419
f 348/419 342/413 343/414
f 348/419 343/414 349/420
f 349/420 343/414 344/415
f 349/420 344/415 350/421
f 350/421 344/415 345/416
f 350/421 345/416 351/422
f 351/422 345/416 346/417
f 196/266 197/265 346/417
f 346/417 197/265 351/422
f 223/293 352/423 221/291
f 221/291 352/423 219/289
f 352/423 223/293 353/424
f 353/424 223/293 225/294
f 227/296 229/299 225/294
f 225/294 229/299 353/424
f 352/423 354/425 219/289
f 219/289 354/425 217/287
f 354/425 352/423 355/426
f 355/426 352/423 353/424
f 355/426 353/424 231/300
f 231/300 353/424 229/299
f 354/425 356/427 217/287
f 217/287 356/427 215/284
f 356/427 351/422 215/284
f 215/284 351/422 197/265
f 351/422 356/427 350/421
f 350/421 356/427 357/428
f 355/426 357/428 354/425
f 354/425 357/428 356/427
f 358/429 355/426 233/302
f 233/302 355/426 231/300
f 355/426 358/429 357/428
f 357/428 358/429 359/430
f 357/428 359/430 350/421
f 350/421 359/430 349/420
f 360/431 358/429 235/305
f 235/305 358/429 233/302
f 361/432 359/430 360/431
f 360/431 359/430 358/429
f 359/430 361/432 349/420
f 349/420 361/432 348/419
f 239/308 348/419 237/307
f 237/307 348/419 361/432
f 361/432 360/431 237/307
f 237/307 360/431 235/305
f 239/308 347/418 348/419
f 239/308 241/310 347/418
f 308/380 307/379 306/376
f 306/376 307/379 305/377
f 367/434 392/435 366/433
f 366/433 392/435 393/436
f 392/435 367/434 391/437
f 391/437 367/434 368/438
f 390/440 391/437 369/439
f 369/439 391/437 368/438
f 372/441 404/442 373/444
f 373/444 404/442 405/443
f 371/445 403/446 372/441
f 372/441 403/446 404/442
f 402/448 403/446 370/447
f 370/447 403/446 371/445
f 381/450 377/451 380/449
f 380/449 377/451 376/452
f 379/453 380/449 375/454
f 375/454 380/449 376/452
f 378/456 379/453 374/455
f 374/455 379/453 375/454
f 399/458 381/450 398/457
f 398/457 381/450 380/449
f 397/459 398/457 379/453
f 379/453 398/457 380/449
f 396/460 397/459 378/456
f 378/456 397/459 379/453
f 205/271 381/545 400/272
f 400/272 381/545 399/549
f 373/542 405/541 207/275
f 207/275 405/541 406/276
f 209/278 366/537 394/279
f 394/279 366/537 393/538
f 205/271 377/546 381/545
f 254/322 395/325 378/548
f 378/548 395/325 396/550
f 256/326 254/322 374/547
f 374/547 254/322 378/548
f 370/543 258/330 402/544
f 402/544 258/330 401/329
f 260/331 389/333 369/539
f 369/539 389/333 390/540
f 200/280 202/273 201/462
f 201/462 202/273 382/461
f 202/273 203/463 382/461
f 251/320 250/321 253/324
f 253/324 250/321 383/464
f 252/465 253/324 383/464
f 263/334 261/332 262/339
f 262/339 261/332 384/466
f 384/466 261/332 260/331
f 208/277 210/283 385/467
f 385/467 210/283 211/355
f 385/467 209/278 208/277
f 293/365 282/468 294/364
f 294/364 282/468 386/469
f 386/469 282/468 281/470
f 387/471 282/468 279/352
f 279/352 282/468 280/351
f 281/470 282/468 387/471
f 388/472 305/377 278/350
f 278/350 305/377 307/379
f 282/468 293/365 388/472
f 280/351 282/468 388/472
f 278/350 280/351 388/472
f 259/328 258/330 261/332
f 261/332 258/330 389/333
f 389/333 258/330 390/540
f 390/540 258/330 370/543
f 370/447 371/445 390/440
f 390/440 371/445 391/437
f 371/445 372/441 391/437
f 391/437 372/441 392/435
f 372/441 373/444 392/435
f 392/435 373/444 393/436
f 393/538 373/542 394/279
f 394/279 373/542 207/275
f 394/279 207/275 208/277
f 208/277 207/275 206/274
f 253/324 252/465 395/325
f 252/465 365/473 395/325
f 395/325 365/473 396/550
f 365/551 364/474 396/460
f 396/460 364/474 397/459
f 364/474 363/475 397/459
f 397/459 363/475 398/457
f 362/476 399/458 363/475
f 363/475 399/458 398/457
f 203/463 400/272 362/552
f 362/552 400/272 399/549
f 400/272 203/463 202/273
f 257/327 256/326 401/329
f 256/326 374/547 401/329
f 401/329 374/547 402/544
f 374/455 375/454 402/448
f 402/448 375/454 403/446
f 403/446 375/454 404/442
f 404/442 375/454 376/452
f 377/451 405/443 376/452
f 376/452 405/443 404/442
f 205/271 406/276 377/546
f 377/546 406/276 405/541
f 205/271 204/270 406/276
f 406/276 204/270 206/274
f 200/280 201/462 408/477
f 408/477 201/462 407/478
f 408/477 407/478 198/268
f 198/268 407/478 199/269
f 408/477 330/401 200/280
f 198/268 330/401 408/477
f 303/374 293/365 291/362
f 303/374 305/377 293/365
f 293/365 305/377 388/472
f 194/264 195/267 409/480
f 409/480 195/267 410/479
f 195/267 199/269 410/479
f 410/479 199/269 411/481
f 214/285 194/264 416/482
f 416/482 194/264 409/480
f 216/286 214/285 417/483
f 417/483 214/285 416/482
f 216/286 417/483 218/288
f 218/288 417/483 418/484
f 220/290 218/288 419/485
f 419/485 218/288 418/484
f 222/292 220/290 420/486
f 420/486 220/290 419/485
f 224/295 222/292 421/487
f 421/487 222/292 420/486
f 224/295 421/487 226/297
f 226/297 421/487 422/488
f 226/297 422/488 228/298
f 228/298 422/488 423/489
f 228/298 423/489 230/301
f 230/301 423/489 424/490
f 232/303 230/301 425/491
f 425/491 230/301 424/490
f 234/304 232/303 426/492
f 426/492 232/303 425/491
f 234/304 426/492 236/306
f 236/306 426/492 427/493
f 236/306 427/493 238/309
f 238/309 427/493 428/494
f 238/309 428/494 240/311
f 240/311 428/494 429/495
f 240/311 429/495 242/312
f 242/312 429/495 430/496
f 242/312 430/496 244/315
f 244/315 430/496 431/497
f 244/315 431/497 246/317
f 246/317 431/497 432/498
f 246/317 432/498 248/319
f 248/319 432/498 433/499
f 248/319 433/499 250/321
f 250/321 433/499 434/500
f 267/340 262/339 438/502
f 438/502 262/339 437/501
f 269/342 267/340 439/503
f 439/503 267/340 438/502
f 271/344 269/342 440/504
f 440/504 269/342 439/503
f 273/345 271/344 441/505
f 441/505 271/344 440/504
f 275/347 273/345 442/506
f 442/506 273/345 441/505
f 277/349 275/347 443/507
f 443/507 275/347 442/506
f 279/352 277/349 444/508
f 444/508 277/349 443/507
f 284/354 446/509 211/355
f 211/355 446/509 415/510
f 286/356 447/511 284/354
f 284/354 447/511 446/509
f 288/358 448/512 286/356
f 286/356 448/512 447/511
f 290/360 449/513 288/358
f 288/358 449/513 448/512
f 292/363 450/514 290/360
f 290/360 450/514 449/513
f 294/364 451/515 292/363
f 292/363 451/515 450/514
f 367/434 366/433 457/517
f 457/517 366/433 456/516
f 367/434 457/517 368/438
f 368/438 457/517 458/518
f 368/438 458/518 369/439
f 369/439 458/518 459/519
f 209/278 414/520 366/537
f 366/537 414/520 456/553
f 260/331 369/539 436/521
f 436/521 369/539 459/554
f 201/462 382/461 412/523
f 412/523 382/461 460/522
f 203/463 413/524 382/461
f 382/461 413/524 460/522
f 250/321 434/500 383/464
f 383/464 434/500 461/525
f 252/465 383/464 435/526
f 435/526 383/464 461/525
f 262/339 384/466 437/501
f 437/501 384/466 462/527
f 260/331 436/521 384/466
f 384/466 436/521 462/527
f 211/355 415/510 385/467
f 385/467 415/510 463/528
f 209/278 385/467 414/520
f 414/520 385/467 463/528
f 294/364 386/469 451/515
f 451/515 386/469 464/529
f 281/470 445/530 386/469
f 386/469 445/530 464/529
f 387/471 279/352 465/531
f 465/531 279/352 444/508
f 281/470 387/471 445/557
f 445/557 387/471 465/531
f 252/465 435/526 365/473
f 365/473 435/526 455/532
f 364/474 365/551 454/533
f 454/533 365/551 455/555
f 364/474 454/533 363/475
f 363/475 454/533 453/534
f 363/475 453/534 362/476
f 362/476 453/534 452/535
f 203/463 362/552 413/524
f 413/524 362/552 452/556
f 407/478 201/462 466/536
f 466/536 201/462 412/523
f 199/269 407/478 411/481
f 411/481 407/478 466/536
f 470/561 469/560 467/558
f 467/558 469/560 468/559
f 471/562 474/565 472/563
f 472/563 474/565 473/564
f 471/569 476/568 474/566
f 474/566 476/568 475/567
f 477/570 480/573 478/571
f 478/571 480/573 479/572
f 481/574 484/577 482/575
f 482/575 484/577 483/576
f 484/578 481/581 485/579
f 485/579 481/581 486/580
f 490/585 489/584 487/582
f 487/582 489/584 488/583
f 491/586 494/589 492/587
f 492/587 494/589 493/588
f 489/584 496/591 488/583
f 488/583 496/591 495/590
f 497/592 491/586 498/593
f 498/593 491/586 492/587
f 497/597 500/596 491/594
f 491/594 500/596 499/595
f 504/601 503/600 501/598
f 501/598 503/600 502/599
f 508/605 507/604 505/602
f 505/602 507/604 506/603
f 505/609 510/608 508/606
f 508/606 510/608 509/607
f 495/590 496/591 511/610
f 511/610 496/591 512/611
f 513/612 497/592 514/613
f 514/613 497/592 498/593
f 515/614 516/615 477/570
f 477/570 516/615 480/573
f 484/577 518/617 483/576
f 483/576 518/617 517/616
f 519/618 520/619 515/614
f 515/614 520/619 516/615
f 518/617 522/621 517/616
f 517/616 522/621 521/620
f 522/622 518/625 523/623
f 523/623 518/625 524/624
f 511/626 512/629 525/627
f 525/627 512/629 526/628
f 513/612 514/613 527/630
f 527/630 514/613 528/631
f 513/632 527/635 529/633
f 529/633 527/635 530/634
f 525/627 526/628 531/636
f 531/636 526/628 532/637
f 527/630 528/631 533/638
f 533/638 528/631 534/639
f 536/641 490/585 535/640
f 535/640 490/585 487/582
f 538/643 537/642 494/589
f 494/589 537/642 493/588
f 494/647 540/646 538/644
f 538/644 540/646 539/645
f 478/571 479/572 467/558
f 467/558 479/572 470/561
f 474/565 481/574 473/564
f 473/564 481/574 482/575
f 531/636 532/637 541/648
f 541/648 532/637 542/649
f 533/638 534/639 543/650
f 543/650 534/639 544/651
f 533/652 543/655 545/653
f 545/653 543/655 546/654
f 541/648 542/649 519/618
f 519/618 542/649 520/619
f 543/650 544/651 522/621
f 522/621 544/651 521/620
f 503/600 536/641 502/599
f 502/599 536/641 535/640
f 505/602 506/603 538/643
f 538/643 506/603 537/642
f 469/560 504/601 468/559
f 468/559 504/601 501/598
f 471/562 472/563 508/605
f 508/605 472/563 507/604
f 550/659 549/658 547/656
f 547/656 549/658 548/657
f 550/661 547/660 491/586
f 491/586 547/660 494/589
f 499/595 549/658 491/594
f 491/594 549/658 550/659
f 547/656 548/657 494/647
f 494/647 548/657 540/646
f 551/662 554/665 552/663
f 552/663 554/665 553/664
f 554/667 551/666 513/612
f 513/612 551/666 497/592
f 529/668 553/664 513/669
f 513/669 553/664 554/665
f 551/662 552/663 497/597
f 497/597 552/663 500/596
f 555/670 558/673 556/671
f 556/671 558/673 557/672
f 558/675 555/674 484/577
f 484/577 555/674 518/617
f 557/672 558/673 485/579
f 485/579 558/673 484/578
f 518/625 555/670 524/624
f 524/624 555/670 556/671
f 559/676 562/679 560/677
f 560/677 562/679 561/678
f 533/638 562/681 527/630
f 527/630 562/681 559/680
f 545/653 561/678 533/652
f 533/652 561/678 562/679
f 559/676 560/677 527/635
f 527/635 560/677 530/634
f 566/685 565/684 563/682
f 563/682 565/684 564/683
f 566/687 563/686 474/565
f 474/565 563/686 481/574
f 565/684 566/685 475/567
f 475/567 566/685 474/566
f 481/581 563/682 486/580
f 486/580 563/682 564/683
f 567/688 570/691 568/689
f 568/689 570/691 569/690
f 522/621 570/693 543/650
f 543/650 570/693 567/692
f 569/690 570/691 523/623
f 523/623 570/691 522/622
f 543/655 567/688 546/654
f 546/654 567/688 568/689
f 574/697 573/696 571/694
f 571/694 573/696 572/695
f 538/643 574/699 505/602
f 505/602 574/699 571/698
f 539/645 573/696 538/644
f 538/644 573/696 574/697
f 505/609 571/694 510/608
f 510/608 571/694 572/695
f 578/703 577/702 575/700
f 575/700 577/702 576/701
f 508/605 578/705 471/562
f 471/562 578/705 575/704
f 577/702 578/703 509/607
f 509/607 578/703 508/606
f 471/569 575/700 476/568
f 476/568 575/700 576/701
f 579/706 580/709 468/707
f 468/707 580/709 467/708
f 581/710 582/713 478/711
f 478/711 582/713 477/712
f 583/714 584/717 488/715
f 488/715 584/717 487/716
f 585/718 583/714 495/719
f 495/719 583/714 488/715
f 587/723 501/722 586/720
f 586/720 501/722 502/721
f 588/724 585/718 511/725
f 511/725 585/718 495/719
f 582/713 589/727 477/712
f 477/712 589/727 515/726
f 589/727 590/729 515/726
f 515/726 590/729 519/728
f 588/724 511/725 591/730
f 591/730 511/725 525/731
f 591/730 525/731 592/732
f 592/732 525/731 531/733
f 593/735 535/734 584/717
f 584/717 535/734 487/716
f 580/709 581/710 467/708
f 467/708 581/710 478/711
f 592/732 531/733 594/736
f 594/736 531/733 541/737
f 594/736 541/737 590/729
f 590/729 541/737 519/728
f 586/720 502/721 593/735
f 593/735 502/721 535/734
f 579/706 468/707 587/723
f 587/723 468/707 501/722
f 595/738 598/741 596/739
f 596/739 598/741 597/740
f 598/741 595/738 473/564
f 473/564 595/738 472/563
f 579/706 596/739 580/709
f 580/709 596/739 597/740
f 599/742 602/745 600/743
f 600/743 602/745 601/744
f 483/576 602/745 482/575
f 482/575 602/745 599/742
f 600/743 601/744 581/710
f 581/710 601/744 582/713
f 603/746 606/749 604/747
f 604/747 606/749 605/748
f 606/749 603/746 493/588
f 493/588 603/746 492/587
f 583/714 604/747 584/717
f 584/717 604/747 605/748
f 607/750 603/746 608/751
f 608/751 603/746 604/747
f 603/746 607/750 492/587
f 492/587 607/750 498/593
f 585/718 608/751 583/714
f 583/714 608/751 604/747
f 612/755 611/754 609/752
f 609/752 611/754 610/753
f 612/755 609/752 507/604
f 507/604 609/752 506/603
f 586/720 610/753 587/723
f 587/723 610/753 611/754
f 613/756 607/750 614/757
f 614/757 607/750 608/751
f 498/593 607/750 514/613
f 514/613 607/750 613/756
f 614/757 608/751 588/724
f 588/724 608/751 585/718
f 602/745 616/759 601/744
f 601/744 616/759 615/758
f 517/616 616/759 483/576
f 483/576 616/759 602/745
f 601/744 615/758 582/713
f 582/713 615/758 589/727
f 616/759 618/761 615/758
f 615/758 618/761 617/760
f 521/620 618/761 517/616
f 517/616 618/761 616/759
f 615/758 617/760 589/727
f 589/727 617/760 590/729
f 613/756 614/757 619/762
f 619/762 614/757 620/763
f 514/613 613/756 528/631
f 528/631 613/756 619/762
f 620/763 614/757 591/730
f 591/730 614/757 588/724
f 619/762 620/763 621/764
f 621/764 620/763 622/765
f 528/631 619/762 534/639
f 534/639 619/762 621/764
f 622/765 620/763 592/732
f 592/732 620/763 591/730
f 624/767 623/766 606/749
f 606/749 623/766 605/748
f 624/767 606/749 537/642
f 537/642 606/749 493/588
f 584/717 605/748 593/735
f 593/735 605/748 623/766
f 598/741 599/742 597/740
f 597/740 599/742 600/743
f 599/742 598/741 482/575
f 482/575 598/741 473/564
f 580/709 597/740 581/710
f 581/710 597/740 600/743
f 621/764 622/765 625/768
f 625/768 622/765 626/769
f 534/639 621/764 544/651
f 544/651 621/764 625/768
f 626/769 622/765 594/736
f 594/736 622/765 592/732
f 625/768 626/769 618/761
f 618/761 626/769 617/760
f 544/651 625/768 521/620
f 521/620 625/768 618/761
f 617/760 626/769 590/729
f 590/729 626/769 594/736
f 609/752 610/753 624/767
f 624/767 610/753 623/766
f 609/752 624/767 506/603
f 506/603 624/767 537/642
f 593/735 623/766 586/720
f 586/720 623/766 610/753
f 595/738 596/739 612/755
f 612/755 596/739 611/754
f 595/738 612/755 472/563
f 472/563 612/755 507/604
f 587/723 611/754 579/706
f 579/706 611/754 596/739
f 629/772 628/771 630/773
f 630/773 628/771 627/770
f 631/774 629/772 632/775
f 632/775 629/772 630/773
f 633/776 631/774 634/777
f 634/777 631/774 632/775
f 635/780 633/779 636/781
f 636/781 633/779 634/778
f 638/783 637/782 636/781
f 636/781 637/782 635/780
f 640/785 639/784 638/783
f 638/783 639/784 637/782
f 642/787 641/786 640/785
f 640/785 641/786 639/784
f 644/789 643/788 642/787
f 642/787 643/788 641/786
f 646/791 645/790 644/789
f 644/789 645/790 643/788
f 648/793 647/792 646/791
f 646/791 647/792 645/790
f 650/795 649/794 648/793
f 648/793 649/794 647/792
f 652/797 651/796 650/795
f 650/795 651/796 649/794
f 653/798 651/796 654/799
f 654/799 651/796 652/797
f 655/800 653/798 656/801
f 656/801 653/798 654/799
f 657/802 655/800 658/803
f 658/803 655/800 656/801
f 628/771 657/802 627/770
f 627/770 657/802 658/803
f 630/804 627/806 659/805
f 632/807 630/804 659/805
f 634/808 632/807 659/805
f 636/809 634/808 659/805
f 638/810 636/809 659/805
f 640/811 638/810 659/805
f 642/812 640/811 659/805
f 644/813 642/812 659/805
f 646/814 644/813 659/805
f 648/815 646/814 659/805
f 650/816 648/815 659/805
f 652/817 650/816 659/805
f 654/818 652/817 659/805
f 656/819 654/818 659/805
f 658/820 656/819 659/805
f 627/806 658/820 659/805
f 660/821 663/824 661/822
f 661/822 663/824 662/823
f 664/825 662/823 665/826
f 665/826 662/823 663/824
f 669/830 668/829 666/827
f 666/827 668/829 667/828
f 670/831 672/833 671/832
f 673/834 675/836 674/835
f 676/837 669/830 677/838
f 677/838 669/830 666/827
f 666/827 670/831 677/838
f 677/838 670/831 678/839
f 679/840 678/839 673/834
f 673/834 678/839 670/831
f 681/842 660/821 680/841
f 680/841 660/821 661/822
f 682/843 681/842 683/844
f 683/844 681/842 680/841
f 684/845 682/843 685/846
f 685/846 682/843 683/844
f 686/847 684/845 687/848
f 687/848 684/845 685/846
f 687/848 689/850 686/847
f 686/847 689/850 688/849
f 691/852 688/849 690/851
f 690/851 688/849 689/850
f 693/854 691/852 692/853
f 692/853 691/852 690/851
f 693/854 692/853 694/855
f 694/855 692/853 695/856
f 696/857 697/858 695/856
f 695/856 697/858 694/855
f 698/859 699/860 696/857
f 696/857 699/860 697/858
f 699/860 698/859 700/861
f 700/861 698/859 701/862
f 700/861 701/862 702/863
f 702/863 701/862 703/864
f 704/865 705/866 703/864
f 703/864 705/866 702/863
f 706/867 707/868 704/865
f 704/865 707/868 705/866
f 707/868 706/867 708/869
f 708/869 706/867 709/870
f 710/871 711/872 709/870
f 709/870 711/872 708/869
f 712/873 713/874 710/871
f 710/871 713/874 711/872
f 714/875 715/876 712/873
f 712/873 715/876 713/874
f 716/877 717/878 714/875
f 714/875 717/878 715/876
f 718/879 721/882 719/880
f 719/880 721/882 720/881
f 718/879 719/880 722/883
f 722/883 719/880 723/884
f 726/887 725/886 724/885
f 724/885 725/886 723/884
f 727/888 729/890 728/889
f 728/889 724/885 730/891
f 730/891 724/885 731/892
f 724/885 723/884 731/892
f 731/892 723/884 732/893
f 732/893 723/884 733/894
f 733/894 723/884 719/880
f 716/877 733/894 720/881
f 720/881 733/894 719/880
f 734/895 736/897 730/891
f 730/891 736/897 735/896
f 738/899 736/897 737/898
f 737/898 736/897 734/895
f 740/901 738/899 739/900
f 739/900 738/899 737/898
f 741/902 740/901 742/903
f 742/903 740/901 739/900
f 743/904 741/902 744/905
f 744/905 741/902 742/903
f 745/906 743/904 746/907
f 746/907 743/904 744/905
f 748/909 745/906 747/908
f 747/908 745/906 746/907
f 679/840 751/912 749/910
f 749/910 751/912 750/911
f 752/913 753/914 750/911
f 750/911 753/914 749/910
f 754/915 755/916 752/913
f 752/913 755/916 753/914
f 756/917 757/918 754/915
f 754/915 757/918 755/916
f 759/920 758/919 756/917
f 756/917 758/919 757/918
f 760/921 761/922 759/920
f 759/920 761/922 758/919
f 678/839 679/840 762/923
f 762/923 679/840 749/910
f 677/838 678/839 763/924
f 763/924 678/839 762/923
f 753/914 764/925 749/910
f 749/910 764/925 762/923
f 763/924 762/923 765/926
f 765/926 762/923 764/925
f 755/916 766/927 753/914
f 753/914 766/927 764/925
f 765/926 764/925 767/928
f 767/928 764/925 766/927
f 757/918 768/929 755/916
f 755/916 768/929 766/927
f 767/928 766/927 769/930
f 769/930 766/927 768/929
f 758/919 770/931 757/918
f 757/918 770/931 768/929
f 769/930 768/929 771/932
f 771/932 768/929 770/931
f 771/932 770/931 772/933
f 772/933 770/931 773/934
f 774/935 775/936 744/905
f 744/905 775/936 746/907
f 777/938 776/937 774/935
f 774/935 776/937 775/936
f 744/905 742/903 774/935
f 774/935 742/903 778/939
f 779/940 777/938 778/939
f 778/939 777/938 774/935
f 742/903 739/900 778/939
f 778/939 739/900 780/941
f 781/942 779/940 780/941
f 780/941 779/940 778/939
f 739/900 737/898 780/941
f 780/941 737/898 782/943
f 783/944 781/942 782/943
f 782/943 781/942 780/941
f 737/898 734/895 782/943
f 782/943 734/895 784/945
f 785/946 783/944 784/945
f 784/945 783/944 782/943
f 784/945 734/895 731/892
f 731/892 734/895 730/891
f 785/946 784/945 732/893
f 732/893 784/945 731/892
f 732/893 733/894 785/946
f 785/946 733/894 786/947
f 787/948 783/944 786/947
f 786/947 783/944 785/946
f 781/942 783/944 788/949
f 788/949 783/944 787/948
f 779/940 781/942 789/950
f 789/950 781/942 788/949
f 777/938 779/940 790/951
f 790/951 779/940 789/950
f 776/937 777/938 791/952
f 791/952 777/938 790/951
f 772/933 776/937 792/953
f 792/953 776/937 791/952
f 793/954 771/932 792/953
f 792/953 771/932 772/933
f 794/955 769/930 793/954
f 793/954 769/930 771/932
f 795/956 767/928 794/955
f 794/955 767/928 769/930
f 765/926 767/928 796/957
f 796/957 767/928 795/956
f 763/924 765/926 797/958
f 797/958 765/926 796/957
f 676/837 677/838 797/958
f 797/958 677/838 763/924
f 714/875 786/947 716/877
f 716/877 786/947 733/894
f 712/873 787/948 714/875
f 714/875 787/948 786/947
f 788/949 787/948 798/959
f 798/959 787/948 712/873
f 789/950 788/949 799/960
f 799/960 788/949 798/959
f 790/951 789/950 800/961
f 800/961 789/950 799/960
f 791/952 790/951 801/962
f 801/962 790/951 800/961
f 792/953 791/952 802/963
f 802/963 791/952 801/962
f 793/954 792/953 803/964
f 803/964 792/953 802/963
f 794/955 793/954 804/965
f 804/965 793/954 803/964
f 795/956 794/955 805/966
f 805/966 794/955 804/965
f 796/957 795/956 806/967
f 806/967 795/956 805/966
f 806/967 664/825 796/957
f 796/957 664/825 797/958
f 806/967 662/823 664/825
f 710/871 798/959 712/873
f 799/960 798/959 807/968
f 807/968 798/959 710/871
f 808/969 800/961 807/968
f 807/968 800/961 799/960
f 801/962 800/961 809/970
f 809/970 800/961 808/969
f 802/963 801/962 810/971
f 810/971 801/962 809/970
f 803/964 802/963 811/972
f 811/972 802/963 810/971
f 804/965 803/964 812/973
f 812/973 803/964 811/972
f 805/966 804/965 813/974
f 813/974 804/965 812/973
f 813/974 662/823 805/966
f 805/966 662/823 806/967
f 709/870 807/968 710/871
f 706/867 808/969 709/870
f 709/870 808/969 807/968
f 814/975 809/970 706/867
f 706/867 809/970 808/969
f 814/975 815/976 809/970
f 809/970 815/976 810/971
f 811/972 810/971 816/977
f 816/977 810/971 815/976
f 812/973 811/972 817/978
f 817/978 811/972 816/977
f 813/974 812/973 818/979
f 818/979 812/973 817/978
f 662/823 813/974 661/822
f 661/822 813/974 818/979
f 685/846 819/980 687/848
f 687/848 819/980 689/850
f 690/851 689/850 820/981
f 820/981 689/850 819/980
f 692/853 690/851 695/856
f 695/856 690/851 820/981
f 683/844 821/982 685/846
f 685/846 821/982 819/980
f 820/981 819/980 822/983
f 822/983 819/980 821/982
f 695/856 820/981 696/857
f 696/857 820/981 822/983
f 680/841 823/984 683/844
f 683/844 823/984 821/982
f 661/822 818/979 680/841
f 680/841 818/979 823/984
f 818/979 817/978 823/984
f 823/984 817/978 824/985
f 823/984 824/985 821/982
f 821/982 824/985 822/983
f 825/986 698/859 822/983
f 822/983 698/859 696/857
f 822/983 824/985 825/986
f 825/986 824/985 826/987
f 816/977 826/987 817/978
f 817/978 826/987 824/985
f 698/859 825/986 701/862
f 701/862 825/986 827/988
f 828/989 827/988 826/987
f 826/987 827/988 825/986
f 815/976 828/989 816/977
f 816/977 828/989 826/987
f 704/865 703/864 815/976
f 815/976 703/864 828/989
f 701/862 827/988 703/864
f 703/864 827/988 828/989
f 704/865 815/976 814/975
f 704/865 814/975 706/867
f 773/934 775/936 772/933
f 772/933 775/936 776/937
f 832/993 831/992 829/990
f 829/990 831/992 830/991
f 834/995 830/991 833/994
f 833/994 830/991 831/992
f 834/995 833/994 835/996
f 835/996 833/994 836/997
f 837/998 840/1001 838/999
f 838/999 840/1001 839/1000
f 841/1002 837/998 842/1003
f 842/1003 837/998 838/999
f 841/1002 842/1003 843/1004
f 843/1004 842/1003 844/1005
f 848/1009 847/1008 845/1006
f 845/1006 847/1008 846/1007
f 849/1010 850/1011 845/1006
f 845/1006 850/1011 848/1009
f 850/1011 849/1010 851/1012
f 851/1012 849/1010 852/1013
f 845/1006 846/1007 853/1014
f 853/1014 846/1007 854/1015
f 855/1016 849/1010 853/1014
f 853/1014 849/1010 845/1006
f 849/1010 855/1016 852/1013
f 852/1013 855/1016 856/1017
f 854/1019 846/1018 668/829
f 668/829 846/1018 667/828
f 672/833 839/1021 671/832
f 671/832 839/1021 840/1020
f 832/1023 829/1022 675/836
f 675/836 829/1022 674/835
f 667/828 846/1018 847/1024
f 856/1026 721/882 852/1025
f 852/1025 721/882 718/879
f 852/1025 718/879 851/1027
f 851/1027 718/879 722/883
f 725/886 726/887 844/1028
f 844/1028 726/887 843/1029
f 836/1031 729/890 835/1030
f 835/1030 729/890 727/888
f 676/837 858/1033 669/830
f 669/830 858/1033 857/1032
f 669/830 857/1032 859/1034
f 860/1035 717/878 720/881
f 720/881 717/878 716/877
f 861/1036 860/1035 720/881
f 730/891 735/896 728/889
f 728/889 735/896 862/1037
f 862/1037 727/888 728/889
f 751/912 679/840 863/1038
f 863/1038 679/840 673/834
f 863/1038 673/834 674/835
f 761/922 760/921 864/1039
f 864/1039 760/921 865/1040
f 865/1040 866/1041 864/1039
f 867/1042 748/909 864/1039
f 864/1039 748/909 747/908
f 866/1041 867/1042 864/1039
f 868/1043 746/907 773/934
f 773/934 746/907 775/936
f 864/1039 868/1043 761/922
f 747/908 868/1043 864/1039
f 746/907 868/1043 747/908
f 729/890 726/887 728/889
f 728/889 726/887 724/885
f 729/890 836/1031 726/887
f 726/887 836/1031 843/1029
f 833/994 841/1002 836/997
f 836/997 841/1002 843/1004
f 841/1002 833/994 837/998
f 837/998 833/994 831/992
f 837/998 831/992 840/1001
f 840/1001 831/992 832/993
f 832/1023 675/836 840/1020
f 840/1020 675/836 671/832
f 670/831 671/832 673/834
f 673/834 671/832 675/836
f 720/881 721/882 861/1036
f 856/1026 869/1044 721/882
f 721/882 869/1044 861/1036
f 855/1016 870/1046 856/1017
f 856/1017 870/1046 869/1045
f 870/1046 855/1016 871/1047
f 871/1047 855/1016 853/1014
f 853/1014 854/1015 871/1047
f 871/1047 854/1015 872/1048
f 854/1019 668/829 872/1049
f 872/1049 668/829 859/1034
f 668/829 669/830 859/1034
f 723/884 725/886 722/883
f 844/1028 851/1027 725/886
f 725/886 851/1027 722/883
f 842/1003 850/1011 844/1005
f 844/1005 850/1011 851/1012
f 842/1003 838/999 850/1011
f 850/1011 838/999 848/1009
f 838/999 839/1000 848/1009
f 848/1009 839/1000 847/1008
f 839/1021 672/833 847/1024
f 847/1024 672/833 667/828
f 667/828 672/833 666/827
f 666/827 672/833 670/831
f 874/1051 858/1033 873/1050
f 873/1050 858/1033 676/837
f 873/1050 664/825 874/1051
f 874/1051 664/825 665/826
f 873/1050 676/837 797/958
f 664/825 873/1050 797/958
f 770/931 758/919 761/922
f 868/1043 773/934 761/922
f 761/922 773/934 770/931
f 660/821 876/1053 663/824
f 663/824 876/1053 875/1052
f 663/824 875/1052 665/826
f 665/826 875/1052 877/1054
f 681/842 878/1055 660/821
f 660/821 878/1055 876/1053
f 682/843 879/1056 681/842
f 681/842 879/1056 878/1055
f 880/1057 879/1056 684/845
f 684/845 879/1056 682/843
f 686/847 881/1058 684/845
f 684/845 881/1058 880/1057
f 688/849 882/1059 686/847
f 686/847 882/1059 881/1058
f 691/852 883/1060 688/849
f 688/849 883/1060 882/1059
f 884/1061 883/1060 693/854
f 693/854 883/1060 691/852
f 885/1062 884/1061 694/855
f 694/855 884/1061 693/854
f 886/1063 885/1062 697/858
f 697/858 885/1062 694/855
f 699/860 887/1064 697/858
f 697/858 887/1064 886/1063
f 700/861 888/1065 699/860
f 699/860 888/1065 887/1064
f 889/1066 888/1065 702/863
f 702/863 888/1065 700/861
f 890/1067 889/1066 705/866
f 705/866 889/1066 702/863
f 891/1068 890/1067 707/868
f 707/868 890/1067 705/866
f 892/1069 891/1068 708/869
f 708/869 891/1068 707/868
f 893/1070 892/1069 711/872
f 711/872 892/1069 708/869
f 894/1071 893/1070 713/874
f 713/874 893/1070 711/872
f 895/1072 894/1071 715/876
f 715/876 894/1071 713/874
f 896/1073 895/1072 717/878
f 717/878 895/1072 715/876
f 736/897 898/1075 735/896
f 735/896 898/1075 897/1074
f 738/899 899/1076 736/897
f 736/897 899/1076 898/1075
f 740/901 900/1077 738/899
f 738/899 900/1077 899/1076
f 741/902 901/1078 740/901
f 740/901 901/1078 900/1077
f 743/904 902/1079 741/902
f 741/902 902/1079 901/1078
f 745/906 903/1080 743/904
f 743/904 903/1080 902/1079
f 748/909 904/1081 745/906
f 745/906 904/1081 903/1080
f 906/1083 905/1082 751/912
f 751/912 905/1082 750/911
f 905/1082 907/1084 750/911
f 750/911 907/1084 752/913
f 907/1084 908/1085 752/913
f 752/913 908/1085 754/915
f 908/1085 909/1086 754/915
f 754/915 909/1086 756/917
f 909/1086 910/1087 756/917
f 756/917 910/1087 759/920
f 910/1087 911/1088 759/920
f 759/920 911/1088 760/921
f 830/991 913/1090 829/990
f 829/990 913/1090 912/1089
f 914/1091 913/1090 834/995
f 834/995 913/1090 830/991
f 915/1092 914/1091 835/996
f 835/996 914/1091 834/995
f 912/1094 916/1093 829/1022
f 829/1022 916/1093 674/835
f 727/888 917/1096 835/1030
f 835/1030 917/1096 915/1095
f 858/1033 919/1098 857/1032
f 857/1032 919/1098 918/1097
f 918/1097 920/1099 857/1032
f 857/1032 920/1099 859/1034
f 921/1100 896/1073 860/1035
f 860/1035 896/1073 717/878
f 861/1036 922/1101 860/1035
f 860/1035 922/1101 921/1100
f 735/896 897/1074 862/1037
f 862/1037 897/1074 923/1102
f 923/1102 917/1096 862/1037
f 862/1037 917/1096 727/888
f 924/1103 906/1083 863/1038
f 863/1038 906/1083 751/912
f 674/835 916/1093 863/1038
f 863/1038 916/1093 924/1103
f 760/921 911/1088 865/1040
f 865/1040 911/1088 925/1104
f 925/1104 926/1105 865/1040
f 865/1040 926/1105 866/1041
f 867/1042 927/1106 748/909
f 748/909 927/1106 904/1081
f 866/1041 926/1107 867/1042
f 867/1042 926/1107 927/1106
f 928/1108 922/1101 869/1044
f 869/1044 922/1101 861/1036
f 870/1046 929/1110 869/1045
f 869/1045 929/1110 928/1109
f 930/1111 929/1110 871/1047
f 871/1047 929/1110 870/1046
f 931/1112 930/1111 872/1048
f 872/1048 930/1111 871/1047
f 859/1034 920/1099 872/1049
f 872/1049 920/1099 931/1113
f 874/1051 932/1114 858/1033
f 858/1033 932/1114 919/1098
f 665/826 877/1054 874/1051
f 874/1051 877/1054 932/1114
